<svg width="1031" height="597" viewBox="0 0 1031 597" fill="none" xmlns="http://www.w3.org/2000/svg">
<g clip-path="url(#clip0_12_1835)">
<mask id="mask0_12_1835" style="mask-type:luminance" maskUnits="userSpaceOnUse" x="0" y="-154" width="1053" height="1052">
<path d="M1052.64 -153.217H0.644531V897.511H1052.64V-153.217Z" fill="white"/>
</mask>
<g mask="url(#mask0_12_1835)">
<g opacity="0.2">
<path d="M125.921 476.5V369.974H153.665V400.035H160.953V433.149H179.061V476.5C179.061 476.5 125.333 477.087 125.921 476.5Z" fill="black"/>
<path d="M169.889 476.502V391.58C169.889 391.58 170.828 382.654 178.823 382.654C178.823 382.654 188.698 383.126 188.698 392.519V476.502H169.889Z" fill="black"/>
<path d="M83.9313 476.502V391.58C83.9313 391.58 84.8703 382.654 92.8651 382.654C92.8651 382.654 102.74 383.126 102.74 392.519V476.502H83.9313Z" fill="black"/>
<path d="M97.5046 476.502V435.735H108.555V404.03L131.247 381.368L130.482 476.502C130.482 476.502 97.5046 477.674 97.5046 476.502Z" fill="black"/>
<path d="M903.822 476.502V435.735H914.874V404.03L937.564 381.368L936.799 476.502C936.799 476.502 903.822 477.674 903.822 476.502Z" fill="black"/>
<path d="M484.916 476.5V435.733H495.964V369.381L518.654 346.718L517.892 476.5C517.892 476.5 484.916 477.671 484.916 476.5Z" fill="black"/>
<path d="M185.608 476.502V379.839H193.28C201.794 379.839 208.7 386.736 208.7 395.239V423.083L215.129 429.504V414.958H231.528V453.745L251.6 476.502H185.608Z" fill="black"/>
<path d="M932.392 476.502V379.839H940.066C948.581 379.839 955.482 386.736 955.482 395.239V423.083L961.912 429.504V414.958H978.312V453.745L998.384 476.502H932.392Z" fill="black"/>
<path d="M522.991 476.502V345.194H530.664C539.178 345.194 546.082 352.087 546.082 360.593V388.433L552.509 429.504V380.311H568.909V453.745L588.984 476.502H522.991Z" fill="black"/>
<path d="M340.525 476.502V329.736H348.197C356.712 329.736 363.615 336.632 363.615 345.136V423.083L370.044 429.504V364.856H386.443V453.745L406.515 476.502H340.525Z" fill="black"/>
<path d="M244.645 418.484V476.504H250.893H276.133V438.021H264.062V412.861C264.062 412.861 262.923 411.941 261.193 410.558C254.532 405.223 244.645 409.955 244.645 418.484Z" fill="black"/>
<path d="M311.714 368.381V476.504H317.962H343.202V438.021H331.131V362.758C331.131 362.758 329.99 361.839 328.26 360.454C321.599 355.12 311.714 359.852 311.714 368.381Z" fill="black"/>
<path d="M54.9048 417.277V470.261C54.9048 473.707 57.7012 476.502 61.1531 476.502H86.3908V438.019H74.3216V417.456C74.3216 414.548 72.9983 411.796 70.7258 409.975L70.4998 409.795C64.2187 404.769 54.9048 409.237 54.9048 417.277Z" fill="black"/>
<path d="M390.33 367.173V476.502H396.579H490.891V438.019H409.747V367.351C409.747 364.443 408.43 361.697 406.158 359.877C406.082 359.818 406.004 359.756 405.925 359.694C399.644 354.669 390.33 359.134 390.33 367.173Z" fill="black"/>
<path d="M284.004 476.5V432.045C284.004 424.201 290.374 367.737 298.227 367.737H307.884V476.5H284.004Z" fill="black"/>
<path d="M286.63 476.502H273.246V463.441H286.63V476.502Z" fill="black"/>
<path d="M669.495 476.5V369.974H697.241V400.035H704.529V433.149H722.633V476.5C722.633 476.5 668.907 477.087 669.495 476.5Z" fill="black"/>
<path d="M713.465 476.502V391.58C713.465 391.58 714.406 382.654 722.401 382.654C722.401 382.654 732.274 383.126 732.274 392.519V476.502H713.465Z" fill="black"/>
<path d="M627.507 476.502V391.58C627.507 391.58 628.446 382.654 636.443 382.654C636.443 382.654 646.316 383.126 646.316 392.519V476.502H627.507Z" fill="black"/>
<path d="M641.08 476.502V435.735H652.133V404.03L674.822 381.368L674.058 476.502C674.058 476.502 641.08 477.674 641.08 476.502Z" fill="black"/>
<path d="M734.978 476.502V379.839H742.648C751.162 379.839 758.068 386.736 758.068 395.239V423.083L764.495 429.504V414.958H780.898V453.745L800.966 476.502H734.978Z" fill="black"/>
<path d="M794.015 418.484V476.504H800.263H825.501V438.021H813.432V412.861C813.432 412.861 812.291 411.941 810.561 410.558C803.9 405.223 794.015 409.955 794.015 418.484Z" fill="black"/>
<path d="M598.479 417.277V476.5H604.729H629.969V438.019H617.897V417.456C617.897 414.548 616.58 411.8 614.306 409.982C614.23 409.92 614.154 409.858 614.076 409.795C607.794 404.771 598.479 409.239 598.479 417.277Z" fill="black"/>
<path d="M881.146 476.502V432.045C881.146 424.201 887.511 417.842 895.364 417.842H905.021V476.502H881.146Z" fill="black"/>
<path d="M835.998 476.502H822.614V463.441H835.998V476.502Z" fill="black"/>
<path d="M487.342 476.502H456.292V384.978H487.342V476.502Z" fill="black"/>
<path d="M441.782 476.502H420.808V346.298H441.782V476.502Z" fill="black"/>
<path d="M903.649 477.023H824.338V440.972H903.649V477.023Z" fill="black"/>
<path d="M634.557 477.023H555.246V455.378H634.557V477.023Z" fill="black"/>
<path d="M689.721 476.941H929.548H980.772C981.497 476.941 981.499 475.816 980.772 475.816H740.946H689.721C688.996 475.816 688.994 476.941 689.721 476.941Z" fill="black"/>
<path d="M396.314 474.987H77.0358C76.3105 474.987 76.3084 476.112 77.0358 476.112H396.314C397.039 476.112 397.041 474.987 396.314 474.987Z" fill="black"/>
<path d="M433.855 476.941H538.995C539.721 476.941 539.721 475.816 538.995 475.816H433.855C433.13 475.816 433.128 476.941 433.855 476.941Z" fill="black"/>
</g>
<path d="M868.757 170.147C868.757 170.147 870.505 172.577 870.651 174.251C871.017 178.433 870.314 182.132 865.323 183.471L862.58 171.824L868.757 170.147Z" fill="black"/>
<path d="M840.876 458.264L840.595 460.794C840.595 460.794 839.187 461.498 839.75 463.329C840.313 465.157 848.343 480.212 848.343 480.212C848.343 480.212 850.163 485.279 854.542 485.279C860.178 485.279 859.331 482.886 859.331 482.886C859.331 482.886 856.091 482.182 855.951 478.948C855.812 475.712 853.243 465.42 853.243 465.42L853.455 459.904L840.876 458.264Z" fill="#C79084"/>
<path d="M855.949 478.95C855.81 475.714 853.241 465.42 853.241 465.42L853.453 459.903L840.874 458.264L840.593 460.794L848.431 464.451L855.949 478.95Z" fill="black"/>
<path d="M840.595 460.796C840.595 460.796 839.185 461.5 839.75 463.329C840.311 465.159 848.343 480.216 848.343 480.216C848.343 480.216 850.161 485.283 854.542 485.283C860.176 485.283 859.331 482.89 859.331 482.89C859.331 482.89 864.824 485.969 865.056 487.122C865.288 488.277 864.593 489.738 864.593 489.738C864.593 489.738 855.117 490.738 852.035 489.738C848.955 488.737 848.955 488.507 848.725 487.738C848.495 486.968 845.413 477.581 842.869 475.502L843.566 486.198H841.949C841.949 486.198 841.102 476.196 838.174 472.656C838.174 472.656 835.861 470.889 836.555 468.043C837.248 465.198 838.222 463.831 838.637 462.965C839.483 461.194 840.595 460.796 840.595 460.796Z" fill="black"/>
<path d="M799.464 448.735C799.464 448.735 795.759 446.46 792.733 448.836C789.704 451.21 790.138 454.884 790.138 454.884L782.685 464.041L783.721 465.305L791.66 458.869C791.66 458.869 793.041 462.779 791.202 467.837C789.359 472.894 789.244 476.571 792.696 479.562C796.15 482.55 804.319 487.838 804.319 487.838C804.319 487.838 806.853 487.951 806.62 485.997C806.392 484.044 803.053 475.305 803.053 475.305L799.464 448.735Z" fill="black"/>
<path d="M810.465 454.884L805.706 469.143C805.706 469.143 804.204 473.235 803.382 476.672C802.912 478.63 800.582 479.465 798.954 478.277C797.51 477.228 797.206 475.412 796.651 473.939C795.354 470.483 794.98 466.573 796.493 460.958C797.493 457.25 796.295 454.061 796.606 451.457C796.762 450.131 797.711 449.041 799.006 448.705L801.812 447.972L810.465 454.884Z" fill="#C79084"/>
<path d="M805.708 469.143L810.465 454.884L801.814 447.972L799.008 448.703C797.713 449.039 796.764 450.127 796.608 451.455C796.608 451.455 799.265 457.271 802.56 460.85L805.708 469.143Z" fill="black"/>
<path d="M880.71 255.851C880.71 255.851 887.121 258.818 886.052 264.275L874.918 271.226L870.051 274.265L866.96 261.006L868.828 254.757L880.71 255.851Z" fill="#FFA75C"/>
<path d="M868.828 254.757L866.96 261.008L870.051 274.265L874.918 271.228L875.343 256.38L868.828 254.757Z" fill="black"/>
<path d="M880.713 255.851C880.713 255.851 887.121 258.818 886.053 264.275C886.053 264.275 873.831 257.883 874.146 255.539L880.713 255.851Z" fill="black"/>
<path d="M890.766 246.71C890.766 246.71 891.857 248.346 891.674 249.436C891.493 250.525 889.131 252.793 887.859 253.156C887.859 253.156 886.587 256.06 884.222 256.787L882.315 258.059L880.133 256.423L885.042 248.892L890.766 246.71Z" fill="black"/>
<path d="M847.402 203.614C847.402 203.614 862.857 209.245 865.039 216.327C867.221 223.41 873.768 240.484 873.768 240.484C873.768 240.484 874.758 246.657 874.497 254.353C874.446 255.826 874.349 257.355 874.193 258.909C873.718 263.567 872.689 268.435 870.677 272.63C870.677 272.63 870.252 265.964 869.609 258.457C869.486 257.029 869.356 255.57 869.219 254.121C868.58 247.349 867.797 240.788 867.02 238.536C865.202 233.268 847.948 211.242 847.948 211.242L845.947 208.519L847.402 203.614Z" fill="#FFA75C"/>
<path d="M874.193 258.907C874.349 257.355 874.446 255.826 874.495 254.353L869.219 254.121C869.356 255.57 869.486 257.029 869.609 258.457L874.193 258.907Z" fill="black"/>
<path d="M847.459 204.952C847.944 205.43 854.458 210.647 853.827 211.39C853.595 211.661 853.623 212.04 853.936 212.24C857.994 214.821 859.929 215.853 862.267 219.966C865.748 226.088 870.061 233.519 869.59 240.788C869.547 241.483 870.63 241.481 870.675 240.788C871.154 233.367 866.755 225.667 863.204 219.42C862.42 218.039 861.639 216.073 860.494 214.934C859.403 213.853 854.16 212.806 855.651 210.832C855.838 210.585 855.672 210.245 855.456 210.091C852.878 208.264 850.474 206.401 848.222 204.187C847.726 203.698 846.962 204.462 847.459 204.952Z" fill="black"/>
<path d="M846.138 210L847.992 204.704C847.992 204.704 856.126 207.389 857.191 205.856C857.703 205.12 860.146 201.021 862.729 196.698C863.089 196.097 865.974 197.638 866.332 196.998C868.772 192.64 863.384 191.926 866.859 183.046C871.276 171.769 861.343 164.212 857.975 161.774C851.292 156.941 838.599 158.387 833.323 167.17C828.045 175.952 833.922 183.2 833.922 183.2C833.922 183.2 836.058 185.361 834.499 188.592C832.936 191.823 830.23 199.391 830.23 199.391L846.138 210Z" fill="#C79084"/>
<path d="M876.213 291.465C876.213 291.465 883.38 318.055 880.99 337.826C878.603 357.597 874.164 380.781 874.164 380.781L858.123 461.911C858.123 461.911 845.152 462.594 839.352 457.821L845.838 396.46L876.213 291.465Z" fill="#3D4445"/>
<path d="M826.382 300.667C820.543 313.657 831.501 348.734 831.501 348.734L834.914 381.119L797.031 448.955C797.031 448.955 802.975 461.492 813.557 462.175L842.423 410.433C842.423 410.433 854.708 401.91 856.073 393.728C857.439 385.548 869.726 321.464 869.726 321.464L876.211 291.463C876.211 291.463 833.89 283.964 826.382 300.667Z" fill="#3D4445"/>
<path d="M835.111 307.806C835.425 328.277 839.017 348.436 840.247 368.837C840.469 372.562 842.195 380.432 840.627 383.896C840.249 384.729 838.895 385.476 838.386 386.309C825.217 407.921 813.836 430.6 799.85 451.769C799.466 452.351 800.401 452.893 800.783 452.314C814.882 430.974 827.523 408.264 840.005 386.03C842.863 380.937 841.704 375.082 841.326 368.837C840.099 348.436 836.508 328.277 836.191 307.806C836.179 307.111 835.1 307.109 835.111 307.806Z" fill="black"/>
<path d="M814.919 461.408C820.549 451.2 826.179 440.994 831.811 430.789C834.965 425.069 837.749 418.808 841.408 413.392C843.821 409.819 846.806 408.083 850.061 405.009C856.745 398.692 858.21 391.758 859.952 382.931C862.29 371.08 863.965 359.105 865.785 347.168C868.259 330.941 870.324 316.052 870.449 299.628C870.455 298.933 869.373 298.933 869.369 299.628C869.241 315.861 867.184 330.845 864.739 346.88C862.921 358.818 861.244 370.793 858.904 382.642C857.971 387.37 857.256 392.487 855.136 396.837C852.14 402.979 847.016 404.781 842.832 409.491C837.377 415.627 833.896 424.764 829.914 431.985C824.603 441.612 819.292 451.235 813.982 460.86C813.645 461.471 814.582 462.017 814.919 461.408Z" fill="black"/>
<path d="M856.617 395.06C861.781 376.365 865.327 342.364 869.387 322.632C869.387 322.632 869.913 302.928 869.913 299.631C869.913 299.631 869.782 290.753 870.932 291.902C872.081 293.049 881.278 315.1 881.278 316.019C881.278 316.939 881.049 324.973 881.049 324.973L874.84 327.042C874.84 327.042 866.562 378.716 863.342 385.837C860.122 392.957 856.617 395.06 856.617 395.06Z" fill="black"/>
<path d="M870.679 272.63C870.679 272.63 877.291 286.197 878.765 294.135C880.234 302.073 885.533 305.307 880.823 319.124L866.989 287.373L870.679 272.63Z" fill="#FFA75C"/>
<path d="M833.767 199.034L850.774 213.424L859.321 223.958C859.321 223.958 867.749 233.742 868.81 239.657C869.87 245.569 867.503 253.561 867.503 253.561L833.767 199.034Z" fill="white"/>
<path d="M878.553 238.863C878.26 238.755 882.156 235.107 884.194 233.225C884.963 232.515 885.969 232.138 887.014 232.165L894.142 232.342C894.823 232.359 895.157 233.176 894.676 233.656C892.855 235.463 889.693 238.608 889.325 238.989C888.803 239.523 881.398 239.923 878.553 238.863Z" fill="black"/>
<path d="M861.992 244.508L869.265 236.38C869.265 236.38 872.67 234.682 875.81 237.691L885.466 238.402L892.035 237.757C893.227 237.639 894.322 238.575 894.268 239.771C894.25 240.191 894.076 240.519 893.607 240.578C892.141 240.76 890.891 241.257 890.891 241.257C890.891 241.257 890.36 243.952 890.019 244.632C889.679 245.311 888.97 246.893 882.793 246.701L888.257 246.256C888.257 246.256 888.706 250.031 885.957 250.16C883.209 250.291 884.181 250.248 884.181 250.248C884.181 250.248 884.968 251.425 883.187 252.497C881.408 253.568 876.385 252.492 873.086 253.329L869.791 254.162L861.992 244.508Z" fill="#C79084"/>
<path d="M878.131 242.69C883.435 243.129 889.511 243.619 894.178 240.685C894.767 240.314 894.105 239.456 893.518 239.825C889.185 242.552 883.193 242.023 878.289 241.619C877.597 241.56 877.437 242.633 878.131 242.69Z" fill="black"/>
<path d="M878.975 247.377C882.146 247.564 890.105 248.308 890.622 243.787C890.702 243.096 889.63 242.938 889.551 243.63C889.037 244.274 888.523 244.917 888.011 245.56C887.409 245.757 886.795 245.9 886.172 245.987C885.478 246.111 884.769 246.191 884.067 246.257C882.426 246.408 880.779 246.404 879.131 246.306C878.441 246.264 878.279 247.335 878.975 247.377Z" fill="black"/>
<path d="M878.409 250.674C880.992 251.11 883.567 251.16 886.163 250.826C886.856 250.736 886.722 249.662 886.029 249.752C883.529 250.074 881.048 250.022 878.563 249.603C877.874 249.486 877.722 250.558 878.409 250.674Z" fill="black"/>
<path d="M819.218 304.418L871.134 324.271L870.412 283.625L870.755 262.83C870.755 262.83 864.953 244.422 859.492 236.923C854.402 229.934 840.42 203.107 830.806 195.075C829.806 194.24 828.285 194.568 827.681 195.723L824.679 201.47C824.679 201.47 818.536 202.151 813.758 205.562L827.751 256.013L825.361 282.942L819.218 304.418Z" fill="#FFA75C"/>
<path d="M837.57 183.178C837.57 183.178 835.82 185.156 834.223 183.572C832.63 181.989 828.053 177.209 830.048 167.57C831.775 159.239 836.343 151.479 850.402 151.917C864.716 152.363 868.313 166.135 868.72 169.661C868.72 169.661 863.417 177.652 850.721 175.076C850.721 175.076 850.765 181.802 847.037 182.032C843.31 182.263 841.683 177.13 841.683 177.13L837.57 183.178Z" fill="black"/>
<path d="M844.279 152.673C844.279 152.673 835.391 144.274 845.646 137.867C850.26 134.984 855.989 137.901 858.455 141.902C859.889 144.226 859.486 150.683 856.825 152.832C854.459 154.741 844.279 152.673 844.279 152.673Z" fill="black"/>
<path d="M824.765 201.525C825.275 204.043 826.855 206.149 828.599 207.983C830.373 209.847 833.321 209.847 835.717 210.327C836.397 210.464 836.687 209.422 836.002 209.284C833.857 208.853 830.993 208.786 829.364 207.218C827.706 205.625 826.265 203.501 825.809 201.238C825.669 200.556 824.63 200.844 824.765 201.525Z" fill="black"/>
<path d="M835.503 210.489C835.065 211.542 834.628 212.592 834.192 213.643C834.149 213.75 834.174 213.97 834.246 214.06L858.68 245.719C859.099 246.261 860.04 245.723 859.615 245.171C855.407 239.716 851.193 234.26 846.981 228.805C844.219 225.226 841.458 221.647 838.698 218.07C836.175 214.801 834.95 214.618 836.547 210.776C836.814 210.134 835.766 209.855 835.503 210.489Z" fill="black"/>
<path d="M869.12 263.852C868.125 264.384 827.085 275.829 825.967 275.983C825.967 275.983 825.68 278.152 825.68 279.137C825.68 280.122 846.903 276.802 846.903 276.802L868.662 266.943L869.12 263.852Z" fill="black"/>
<path d="M830.247 229.962C830.247 229.962 831.088 240.968 830.545 248.018C830.003 255.067 830.821 256.013 830.821 256.013L840.137 252.354C840.137 252.354 838.509 251.814 836.155 248.018C833.802 244.223 830.247 229.962 830.247 229.962Z" fill="black"/>
<path d="M826.06 261.4C827.792 259.235 829.81 257.37 832.119 255.83C832.697 255.447 832.156 254.511 831.573 254.899C829.187 256.485 827.083 258.398 825.296 260.635C824.864 261.174 825.626 261.944 826.06 261.4Z" fill="black"/>
<path d="M868.773 263.508C870.64 274.124 870.388 285.466 869.691 296.181C869.646 296.876 870.729 296.874 870.774 296.181C871.477 285.353 871.705 273.951 869.816 263.222C869.695 262.537 868.651 262.824 868.773 263.508Z" fill="black"/>
<path d="M837.277 182.89C837.277 182.89 832.85 177.487 836.257 174.013C839.663 170.54 841.512 172.267 841.539 176.946C841.563 181.624 837.277 182.89 837.277 182.89Z" fill="#C79084"/>
<path d="M847.533 204.226C844.367 201.855 841.752 198.923 839.734 195.524C839.378 194.925 838.441 195.469 838.799 196.07C840.915 199.637 843.664 202.674 846.985 205.159C847.544 205.578 848.086 204.638 847.533 204.226Z" fill="black"/>
<path d="M847.768 204.999C844.529 202.625 841.281 199.27 839.265 195.797L846.013 209.444L847.768 204.999Z" fill="black"/>
<path d="M855.267 177.634C857.681 176.476 860.285 176.281 862.861 176.992C863.534 177.179 863.78 176.124 863.109 175.938C860.234 175.144 857.369 175.436 854.686 176.721C854.06 177.021 854.643 177.932 855.267 177.634Z" fill="black"/>
<path d="M859.185 180.525C858.649 181.151 858.404 181.864 858.521 182.69C858.585 183.149 859.106 183.389 859.459 183.039C860.24 182.262 860.916 181.413 861.509 180.486C861.883 179.897 860.925 179.39 860.554 179.975C860.01 180.827 859.381 181.59 858.665 182.3C858.976 182.418 859.29 182.534 859.601 182.649C859.525 182.106 859.612 181.686 859.979 181.261C860.434 180.733 859.64 179.995 859.185 180.525Z" fill="black"/>
<path d="M852.623 195.787L855.439 197.972C855.987 198.395 856.727 197.606 856.176 197.179C855.238 196.451 854.298 195.722 853.358 194.993C852.812 194.57 852.07 195.359 852.623 195.787Z" fill="black"/>
<path d="M853.634 289.043C847.833 288.38 840.691 286.697 835.614 283.763C835.294 283.578 834.934 283.763 834.821 284.089C833.426 288.011 832.027 294.016 834.681 297.699C837.541 301.668 844.527 302.623 849.072 302.779C849.769 302.803 849.769 301.722 849.072 301.699C845.121 301.562 840.517 300.747 837.188 298.522C832.789 295.584 834.628 289.827 835.472 285.604C835.503 285.452 835.686 284.524 835.846 284.428C834.778 285.068 836.697 285.511 837.122 285.692C838.684 286.347 840.305 286.866 841.92 287.364C845.723 288.534 849.668 289.673 853.634 290.127C854.324 290.207 854.32 289.121 853.634 289.043Z" fill="black"/>
<path d="M852.111 301.266C854.745 298.611 856.03 295.056 855.654 291.331C855.582 290.644 854.501 290.638 854.571 291.331C854.922 294.791 853.802 298.024 851.345 300.501C850.856 300.997 851.62 301.761 852.111 301.266Z" fill="black"/>
<path d="M822.672 303.017C836.553 311.028 853.508 315.539 868.536 321.012C869.192 321.25 869.473 320.206 868.824 319.97C853.884 314.527 837.009 310.043 823.22 302.085C822.614 301.736 822.067 302.668 822.672 303.017Z" fill="black"/>
<path d="M880.556 313.062C881.532 309.342 881.802 305.605 881.36 301.781C881.28 301.098 880.195 301.092 880.275 301.781C880.708 305.502 880.462 309.151 879.513 312.777C879.336 313.45 880.38 313.737 880.556 313.062Z" fill="black"/>
<path d="M869.729 261.4C869.729 261.4 823.575 277.922 819.85 278.493C816.125 279.065 814.148 274.746 811.68 268.067C809.214 261.389 798.175 215.958 812.931 205.821L816.21 203.57C816.21 203.57 830.281 204.406 831.66 221.058C833.039 237.711 833.097 255.127 833.097 255.127L860.709 242.83C860.709 242.83 867.627 244.109 869.729 261.4Z" fill="#FFA75C"/>
<path d="M819.374 203.836C834.611 212.274 832.466 240.295 832.123 255.207C832.115 255.54 832.531 255.819 832.838 255.685C843.49 250.997 854.238 246.49 864.758 241.508C865.38 241.215 865.036 240.185 864.406 240.486C860.54 242.317 856.633 244.035 852.716 245.76L842.01 250.47C840.435 251.161 835.368 254.531 833.792 254.088C831.438 253.427 834.239 259.542 833.288 251.437C832.858 247.781 833.147 243.924 832.911 240.239C832.457 233.144 832.525 224.793 830.812 217.878C829.284 211.717 825.477 205.979 819.862 202.87C819.25 202.532 818.765 203.499 819.374 203.836Z" fill="black"/>
<path d="M830.98 275.614C842.378 272.486 853.581 267.866 864.682 263.833C866.264 263.258 872.343 261.841 873.354 260.491C875.435 257.716 868.766 246.789 867.687 244.069C867.433 243.424 866.406 243.772 866.663 244.42C868.231 248.374 870.508 252.379 871.601 256.476C872.468 259.719 872.561 259.405 869.434 260.884C866.099 262.464 862.403 263.507 858.936 264.744C849.59 268.076 840.204 271.96 830.628 274.591C829.956 274.774 830.31 275.797 830.98 275.614Z" fill="black"/>
<path d="M890.129 489.8C890.129 493.283 864.859 496.106 833.687 496.106C802.513 496.106 777.245 493.283 777.245 489.8C777.245 486.319 802.513 483.496 833.687 483.496C864.859 483.496 890.129 486.319 890.129 489.8Z" fill="#413846"/>
<path d="M181.237 486.488L182.719 501.647L191.036 500.656L194.075 486.149L181.237 486.488Z" fill="#FFC48E"/>
<path d="M194.077 486.149L181.239 486.488L182.723 501.647L185.548 496.355L190.14 495.296L194.077 486.149Z" fill="black"/>
<path d="M213.666 484.126L212.992 500.658L222.789 501.335L226.841 484.803L213.666 484.126Z" fill="#FFC48E"/>
<path d="M212.992 500.656L213.668 484.124L226.841 484.799L223.35 496.353H216.637L212.992 500.656Z" fill="black"/>
<path d="M181.461 217.132C182.281 215.728 182.178 215.492 182.178 215.492C182.178 215.492 185.034 213.504 186.557 214.439L185.62 219.531C185.62 219.531 183.452 221.579 182.632 221.169C181.813 220.76 181.461 217.132 181.461 217.132Z" fill="black"/>
<path d="M233.034 342.663L233.336 413.011L230.034 495.345C230.034 495.345 213.829 494.077 210.652 493.125L201.64 355.508C201.64 355.508 211.431 333.709 211.733 333.609C220.311 330.752 231.359 327.606 231.359 327.606L233.034 342.663Z" fill="#5FA0AF"/>
<path d="M201.642 355.506L198.523 493.789L178.324 493.621L174.214 418.976L167.962 329.166L172.41 322.184L214.279 331.39C214.279 331.39 203.549 350.747 201.642 355.506Z" fill="#5FA0AF"/>
<path d="M172.41 322.186L171.26 331.411C171.26 331.411 182.71 336.367 189.963 339.035C197.217 341.705 207.905 346.661 217.449 342.848C226.991 339.035 235.391 334.079 235.391 334.079L233.098 328.216L209.814 334.461L172.41 322.186Z" fill="black"/>
<path d="M188.186 220.924C184.046 221.614 179.041 218.513 178.005 224.198C176.97 229.884 166.791 323.278 166.791 323.278C166.791 323.278 170.947 327.052 184.406 332.739C197.862 338.425 217.342 342.581 231.144 333.794L227.176 285.889L219.241 229.025L188.186 220.924Z" fill="#B9E6E6"/>
<path d="M183.972 229.605C192.575 238.081 208.084 239.696 212.865 226.328C213.12 225.616 211.986 225.31 211.733 226.016C207.245 238.571 192.688 236.548 184.8 228.776C184.262 228.247 183.434 229.074 183.972 229.605Z" fill="black"/>
<path d="M187.591 208.6C187.591 208.6 187.488 212.176 184.212 216.92C180.938 221.661 180.047 223.014 184.17 226.651C188.293 230.287 193.3 232.815 196.799 232.74C205.118 232.563 210.283 228.926 209.717 225.07C209.152 221.212 206.932 211.621 206.932 211.621L187.591 208.6Z" fill="#FFC48E"/>
<path d="M187.595 208.601C187.786 211.203 191.352 216.804 191.352 216.804C191.352 216.804 198.078 225.791 203.253 225.471C208.426 225.15 214.595 209.525 214.758 206.92C214.919 204.315 217.529 194.102 216.764 187.014C216.764 187.014 207.711 177.196 201.345 179.21C196.366 180.787 189.469 180.301 187.712 193.764C187.223 197.514 187.133 202.341 187.595 208.601Z" fill="#FFC48E"/>
<path d="M189.353 207.109C187.494 208.186 183.613 207.705 182.864 203.424C182.118 199.144 185.5 197.884 188.68 201.053L189.353 207.109Z" fill="#FFC48E"/>
<path d="M210.9 217.443C208.012 223.721 203.808 224.905 202.739 225.092C200.86 225.42 199.103 224.145 197.685 222.867C194.468 219.963 191.625 216.649 189.246 213.029C189.246 213.029 193.659 230.335 200.073 229.938C206.485 229.541 210.9 217.443 210.9 217.443Z" fill="black"/>
<path d="M182.178 215.492C181.93 218.981 187.42 238.67 189.166 248.639C190.913 258.609 196.152 273.812 192.908 287.27C189.666 300.728 175.129 324.616 174.562 325.468C173.992 326.319 165.745 341.945 155.506 341.091C145.268 340.24 144.128 336.548 144.128 336.548C144.128 336.548 157.637 313.237 161.192 299.903C163.302 291.984 154.085 231.729 154.085 231.729L172.287 222.355L182.178 215.492Z" fill="#3D4445"/>
<path d="M160.483 302.684C165.56 302.939 176.222 303.193 182.059 302.941L183.019 306.54L163.791 308.041L158.888 306.54L160.483 302.684Z" fill="black"/>
<path d="M172.632 227.344C173.968 225.22 175.303 223.096 176.639 220.97C177.042 220.329 176.024 219.74 175.624 220.379C174.288 222.503 172.957 224.629 171.621 226.753C171.221 227.393 172.231 227.982 172.632 227.344Z" fill="black"/>
<path d="M172.324 228.048C174.027 229.16 175.842 230.055 177.761 230.738C178.472 230.992 178.78 229.858 178.071 229.605C176.246 228.955 174.535 228.095 172.914 227.036C172.281 226.621 171.693 227.635 172.324 228.048Z" fill="black"/>
<path d="M176.92 230.381C175.034 231.668 173.341 233.178 171.868 234.922C171.385 235.497 172.211 236.328 172.698 235.752C174.107 234.083 175.708 232.624 177.512 231.393C178.133 230.97 177.547 229.954 176.92 230.381Z" fill="black"/>
<path d="M171.272 236.751C177.937 250.187 183.423 264.058 187.753 278.415C187.968 279.135 189.103 278.827 188.883 278.103C184.523 263.643 178.998 249.688 172.285 236.16C171.95 235.485 170.937 236.078 171.272 236.751Z" fill="black"/>
<path d="M182.61 302.103C182.61 302.103 182.131 283.923 183.727 281.532C185.324 279.139 187.239 278.183 187.239 278.183C187.239 278.183 188.835 279.457 189.316 282.488C189.795 285.517 188.835 293.81 187.239 297.32C185.642 300.827 182.61 302.103 182.61 302.103Z" fill="black"/>
<path d="M211.739 217.666C208.994 221.144 208.848 221.372 209.814 226.42C210.835 231.746 210.221 238.081 210.393 242.302C210.712 250.117 216.939 283.287 219.335 292.856C221.729 302.424 233.704 347.235 237.538 350.267C237.538 350.267 238.814 352.021 237.696 341.335C236.578 330.652 233.065 311.513 231.628 304.178C230.192 296.842 236.578 256.655 235.142 229.862C235.142 229.862 217.737 222.527 215.183 222.207C215.183 222.207 215.413 217.187 211.739 217.666Z" fill="#3D4445"/>
<path d="M194.324 284.773C192.663 285.879 189.896 293.343 189.896 293.343C189.896 293.343 196.263 296.107 202.351 293.068C208.439 290.026 213.145 287.26 213.145 287.26C213.145 287.26 219.785 293.343 221.168 292.238C222.553 291.132 221.168 284.773 221.168 284.773L209.317 282.33L194.324 284.773Z" fill="black"/>
<path d="M219.473 272.747C221.291 262.937 221.752 252.951 222.45 243.018C223.097 233.851 224.149 233.492 215.631 229.351C214.955 229.022 214.361 230.036 215.041 230.367C218.359 231.98 221.199 232.928 221.756 236.712C222.267 240.186 221.152 244.872 220.915 248.344C220.365 256.407 219.814 264.48 218.341 272.437C218.203 273.173 219.335 273.487 219.473 272.747Z" fill="black"/>
<path d="M235.857 302.943C235.857 302.943 242.644 290.225 238.279 281.51C236.895 278.743 229.627 281.854 229.627 281.854C229.627 281.854 223.915 298.795 235.857 302.943Z" fill="black"/>
<path d="M187.569 201.696L190.311 196.181L190.868 189.658C190.868 189.658 198.716 192.058 204.319 193.153C209.921 194.248 214.055 194.954 216.543 192.396C219.031 189.838 221.922 189.9 221.026 187.072C220.127 184.242 220.546 179.408 216.786 176.996C213.027 174.584 204.551 173.667 199.111 175.205C193.674 176.745 186.84 179.09 188.066 183.341C188.066 183.341 185.836 182.276 183.499 183.384C181.161 184.489 183.435 200.992 187.569 201.696Z" fill="black"/>
<path d="M188.758 213.355C191.449 217.327 197.044 226.317 202.776 225.679C206.862 225.222 209.77 221.001 211.421 217.709C211.76 217.032 210.712 216.507 210.373 217.179C209.121 219.674 206.247 224.46 202.825 224.481C197.35 224.517 192.382 216.615 189.732 212.703C189.308 212.079 188.334 212.728 188.758 213.355Z" fill="black"/>
<path d="M168.445 235.039C171.124 237.531 173.193 240.478 174.64 243.837C174.935 244.529 175.946 243.932 175.653 243.246C174.169 239.799 172.022 236.765 169.275 234.21C168.722 233.697 167.89 234.524 168.445 235.039Z" fill="black"/>
<path d="M165.34 254.872C167.687 263.563 169.659 272.33 171.256 281.189C171.391 281.93 172.519 281.618 172.386 280.879C170.787 272.02 168.817 263.251 166.468 254.56C166.273 253.833 165.143 254.141 165.34 254.872Z" fill="black"/>
<path d="M160.966 303.281C167.781 303.612 174.629 303.879 181.455 303.628C182.207 303.599 182.211 302.428 181.455 302.456C174.629 302.707 167.781 302.442 160.966 302.112C160.21 302.075 160.212 303.244 160.966 303.281Z" fill="black"/>
<path d="M234.382 230.541C234.686 236.217 234.612 241.875 234.164 247.541C234.104 248.293 235.28 248.288 235.339 247.541C235.787 241.875 235.859 236.217 235.555 230.541C235.514 229.792 234.341 229.786 234.382 230.541Z" fill="black"/>
<path d="M234.269 248.444C234.355 258.628 235.984 268.722 235.635 278.918C235.608 279.671 236.782 279.671 236.808 278.918C237.158 268.724 235.526 258.628 235.442 248.444C235.436 247.691 234.263 247.689 234.269 248.444Z" fill="black"/>
<path d="M214.819 223.555C215.571 225.033 216.175 226.554 216.648 228.142C216.738 227.92 216.828 227.703 216.917 227.481C216.222 228.013 215.526 228.544 214.831 229.074C214.24 229.527 214.823 230.543 215.423 230.085C216.118 229.554 216.814 229.024 217.511 228.493C217.716 228.337 217.86 228.099 217.78 227.83C217.278 226.145 216.629 224.532 215.832 222.964C215.491 222.293 214.476 222.882 214.819 223.555Z" fill="black"/>
<path d="M202.649 354.11C204.889 350.798 206.407 347.166 207.192 343.248C207.34 342.513 206.208 342.197 206.06 342.938C205.293 346.768 203.824 350.281 201.636 353.517C201.213 354.145 202.228 354.732 202.649 354.11Z" fill="black"/>
<path d="M203.424 351.424C205.982 360.702 206.158 370.988 206.947 380.526C208.228 396.022 209.212 411.543 210.134 427.064C211.369 447.875 212.47 468.697 213.418 489.523C213.451 490.274 214.626 490.278 214.591 489.523C213.611 467.977 212.468 446.437 211.178 424.909C210.237 409.204 209.236 393.498 207.895 377.821C207.145 369.054 206.91 359.653 204.556 351.114C204.354 350.388 203.222 350.695 203.424 351.424Z" fill="black"/>
<path d="M176.07 346.345C178.992 341.9 178.862 336.683 180.683 331.823C180.948 331.117 179.813 330.812 179.55 331.511C177.771 336.266 177.913 341.407 175.055 345.752C174.638 346.386 175.657 346.973 176.07 346.345Z" fill="black"/>
<path d="M172.612 346.741C175.24 343.303 174.833 339.135 176.355 335.259C176.633 334.557 175.494 334.251 175.221 334.947C173.738 338.725 174.157 342.803 171.599 346.148C171.141 346.747 172.16 347.332 172.612 346.741Z" fill="black"/>
<path d="M171.718 347.57C176.131 395.074 178.472 442.659 180.687 490.315C180.721 491.064 181.897 491.07 181.862 490.315C179.645 442.655 177.305 395.079 172.891 347.57C172.823 346.825 171.648 346.817 171.718 347.57Z" fill="black"/>
<path d="M153.717 231.76C152.136 231.799 148.736 239.112 148.802 248.202C148.897 261.121 147.222 293.707 150.531 298.25C153.838 302.796 172.561 304.406 183.985 301.412C183.985 301.412 183.054 283.248 184.592 280.819C186.128 278.387 188.019 277.384 188.019 277.384L170.694 280.684C170.694 280.684 160.793 231.585 153.717 231.76Z" fill="#3D4445"/>
<path d="M205.603 274.23C205.603 274.23 209.004 265.587 210.609 265.453C212.213 265.317 224.313 264.923 224.804 265.668C225.295 266.412 221.621 273.69 221.621 273.69C221.621 273.69 205.849 284.124 205.603 274.23Z" fill="black"/>
<path d="M188.02 277.381C188.02 277.381 194.397 268.194 195.511 267.863C196.625 267.529 201.328 266.216 203.092 267.497C204.856 268.777 207.685 269.699 207.695 270.105C207.705 270.514 207.542 272.146 204.365 271.409C201.186 270.675 199.866 270.808 199.866 270.808C199.866 270.808 199.302 272.756 201.547 272.904C203.793 273.053 207.835 273.181 207.835 273.181C207.835 273.181 215.229 269.993 216.978 270.765C218.732 271.536 219.357 271.853 217.344 272.819C215.329 273.786 210.507 276.552 208.783 277.001L211.432 276.812C211.432 276.812 217.817 273.591 220.439 273.307C222.126 273.124 225.006 273.547 222.998 274.818C220.991 276.089 217.983 278.098 217.983 278.098C217.983 278.098 217.253 281.475 214.832 282.553C212.413 283.631 210.589 283.982 210.589 283.982C210.589 283.982 208.319 286.99 206.003 288.066C203.684 289.141 194.085 288.36 194.085 288.36L183.976 295.736C183.976 295.736 183.578 282.225 184.594 280.816L188.02 277.381Z" fill="#FFC48E"/>
<path d="M154.055 283.218C161.096 279.399 167.73 282.435 174.933 280.895C178.966 280.036 182.996 279.16 187.027 278.292C187.765 278.134 187.423 277.011 186.687 277.171C182.396 278.094 178.018 279.418 173.668 279.971C166.545 280.881 160.169 278.57 153.438 282.221C152.775 282.583 153.392 283.578 154.055 283.218Z" fill="black"/>
<path d="M176.135 299.679C175.536 299.374 174.103 298.206 175.611 297.951C175.971 297.889 176.356 297.976 176.601 298.261C177.02 298.75 176.725 299.42 176.062 299.373C175.31 299.318 175.343 300.491 176.091 300.545C177.094 300.618 177.934 299.797 177.998 298.806C178.069 297.71 177.102 296.902 176.085 296.775C175.094 296.656 173.924 297.205 173.749 298.27C173.552 299.458 174.642 300.231 175.569 300.705C176.241 301.048 176.81 300.024 176.135 299.679Z" fill="black"/>
<path d="M202.288 278.866C205.523 278.273 208.815 278.025 211.984 277.109C212.709 276.898 212.37 275.777 211.644 275.986C208.477 276.904 205.182 277.152 201.948 277.745C201.207 277.881 201.551 279.001 202.288 278.866Z" fill="black"/>
<path d="M202.782 282.272C209.086 282.623 215.861 280.113 221.315 277.083C221.973 276.715 221.357 275.72 220.698 276.086C215.427 279.012 208.822 281.439 202.753 281.1C201.997 281.057 202.03 282.231 202.782 282.272Z" fill="black"/>
<path d="M203.572 285.604C207.553 285.627 211.323 284.639 214.788 282.685C215.445 282.313 214.828 281.316 214.172 281.688C210.874 283.545 207.327 284.454 203.542 284.433C202.788 284.429 202.817 285.6 203.572 285.604Z" fill="black"/>
<path d="M198.139 288.919C202.59 290.519 207.558 289.07 210.445 285.327C210.903 284.735 210.057 283.92 209.595 284.519C206.937 287.968 202.523 289.256 198.423 287.781C197.712 287.525 197.436 288.665 198.139 288.919Z" fill="black"/>
<path d="M235.285 229.84C235.285 229.84 238.91 232.434 239.825 242.471C240.737 252.51 243.287 270.176 243.212 276.227C243.212 276.227 246.619 280.592 246.041 285.252C245.464 289.912 235.09 302.923 235.09 302.923C235.09 302.923 242.034 290.288 237.779 281.519C236.431 278.736 229.124 281.757 229.124 281.757L234.735 248.114L235.285 229.84Z" fill="#3D4445"/>
<path d="M235.327 253.784L228.589 284.135L235.194 285.803C235.194 285.803 236.983 269.681 235.974 265.7C234.963 261.718 235.327 253.784 235.327 253.784Z" fill="black"/>
<path d="M215.187 279.989C217.557 280.591 213.68 282.522 214.54 283.3C214.54 283.3 212.633 282.803 213.388 283.727C214.145 284.652 221.188 289.039 221.188 289.039C221.188 289.039 223.664 290.35 224.869 290.591C226.074 290.832 228.5 289.956 228.5 289.956C228.5 289.956 228.486 291.239 229.157 291.927C229.827 292.612 236.723 296.696 238.42 293.776C238.42 293.776 240.559 286.044 237.781 281.519L234.655 280.786C234.655 280.786 229.556 275.543 228.143 273.867C226.727 272.191 227.078 270.786 225.255 271.818C223.924 272.571 225.141 274.834 226.104 276.354C227.066 277.875 228.311 280.981 228.311 280.981C228.311 280.981 225.757 279.97 222.893 279.633C220.029 279.296 215.187 279.989 215.187 279.989Z" fill="#FFC48E"/>
<path d="M238.418 293.774C236.722 296.694 229.827 292.615 229.156 291.927C228.484 291.241 228.5 289.957 228.5 289.957C228.5 289.957 226.075 290.832 224.869 290.591C223.664 290.348 221.188 289.037 221.188 289.037C221.188 289.037 214.147 284.652 213.39 283.725C213.145 283.426 213.894 283.165 214.402 282.693C215.458 281.708 216.787 280.395 215.185 279.987C215.185 279.987 220.027 279.294 222.891 279.631C225.755 279.968 228.309 280.981 228.309 280.981L230.397 285.27L235.481 288.192L238.418 293.774Z" fill="#D2865E"/>
<path d="M238.787 275.697C240.096 275.836 241.261 276.314 242.322 277.089C242.933 277.534 243.531 276.525 242.927 276.084C241.691 275.18 240.322 274.685 238.801 274.525C238.05 274.446 238.042 275.618 238.787 275.697Z" fill="black"/>
<path d="M238.939 270.559C240.544 272.024 241.658 273.834 242.224 275.93C242.418 276.659 243.556 276.363 243.357 275.634C242.743 273.351 241.525 271.336 239.777 269.741C239.221 269.235 238.38 270.05 238.939 270.559Z" fill="black"/>
<path d="M214.36 283.536C216.607 285.417 219.009 287.068 221.579 288.479C222.242 288.842 222.848 287.838 222.185 287.475C219.703 286.114 217.372 284.534 215.2 282.717C214.627 282.238 213.781 283.05 214.36 283.536Z" fill="black"/>
<path d="M215.103 282.757C219.097 284.344 223.135 285.791 227.226 287.1C227.947 287.331 228.271 286.204 227.553 285.973C223.461 284.662 219.419 283.217 215.428 281.63C214.726 281.35 214.408 282.481 215.103 282.757Z" fill="black"/>
<path d="M228.889 290.101C231.5 289.965 233.978 289.316 236.318 288.15C236.992 287.814 236.413 286.795 235.737 287.131C233.583 288.205 231.307 288.805 228.903 288.929C228.153 288.969 228.132 290.141 228.889 290.101Z" fill="black"/>
<path d="M204.773 214.372C205.933 214.576 207.082 214.624 208.255 214.506C209.003 214.43 208.933 213.26 208.182 213.336C207.11 213.443 206.074 213.411 205.013 213.226C204.27 213.095 204.03 214.241 204.773 214.372Z" fill="black"/>
<path d="M209.34 213.293C208.868 208.511 209.087 203.704 208.351 198.945C208.237 198.205 207.066 198.27 207.181 199.017C207.919 203.777 207.695 208.583 208.169 213.365C208.245 214.113 209.415 214.045 209.34 213.293Z" fill="black"/>
<path d="M199.062 202.309C199.055 202.852 199.034 203.242 198.759 203.722C198.287 204.541 199.598 205.196 200.066 204.381C200.469 203.68 200.514 203.013 200.526 202.218C200.54 201.275 199.076 201.37 199.062 202.309Z" fill="black"/>
<path d="M210.889 203.111C210.744 203.659 210.597 204.205 210.45 204.753C210.206 205.666 211.645 205.962 211.887 205.054C212.032 204.507 212.177 203.959 212.322 203.413C212.566 202.499 211.134 202.204 210.889 203.111Z" fill="black"/>
<path d="M199.679 217.435L205.048 217.102C205.801 217.055 205.73 215.887 204.975 215.934L199.607 216.267C198.854 216.313 198.925 217.482 199.679 217.435Z" fill="black"/>
<path d="M194.666 198.972C197.215 196.543 200.881 195.866 204.135 197.217C204.828 197.505 205.36 196.46 204.663 196.17C200.893 194.606 196.738 195.384 193.786 198.196C193.24 198.717 194.123 199.489 194.666 198.972Z" fill="black"/>
<path d="M211.816 197.483C212.362 196.427 214.11 196.668 214.428 197.776C214.636 198.501 215.748 198.12 215.541 197.394C214.934 195.285 211.759 195.037 210.766 196.956C210.419 197.627 211.471 198.152 211.816 197.483Z" fill="black"/>
<path d="M184.49 202.491C185.011 203.16 185.48 203.852 185.907 204.587C186.287 205.238 187.263 204.585 186.883 203.932C186.457 203.2 185.985 202.507 185.464 201.838C185.003 201.246 184.025 201.895 184.49 202.491Z" fill="black"/>
<path d="M182.721 501.647C182.721 501.647 175.768 506.651 175.768 508.619C175.768 510.585 182.464 510.301 186.797 509.905C191.13 509.513 197.827 508.941 197.827 508.941C197.827 508.941 196.456 500.192 191.036 500.658L182.721 501.647Z" fill="black"/>
<path d="M212.993 500.656C212.993 500.656 210.43 506.63 210.825 508.204C211.219 509.776 237.61 508.204 237.61 508.204C237.61 508.204 239.085 501.331 222.789 501.331L212.993 500.656Z" fill="black"/>
<mask id="mask1_12_1835" style="mask-type:luminance" maskUnits="userSpaceOnUse" x="-176" y="-466" width="1053" height="1052">
<path d="M876.461 -465.644H-175.539V585.084H876.461V-465.644Z" fill="white"/>
</mask>
<g mask="url(#mask1_12_1835)">
<path d="M177.718 160.969L181.669 167.881C182.043 168.536 183.058 167.945 182.684 167.29L178.73 160.378C178.357 159.724 177.342 160.313 177.718 160.969Z" fill="black"/>
</g>
<mask id="mask2_12_1835" style="mask-type:luminance" maskUnits="userSpaceOnUse" x="-169" y="-475" width="1053" height="1052">
<path d="M883.515 -474.717H-168.485V576.011H883.515V-474.717Z" fill="white"/>
</mask>
<g mask="url(#mask2_12_1835)">
<path d="M170.968 170.136C173.618 171.425 176.267 172.716 178.915 174.003C179.591 174.333 180.187 173.321 179.507 172.993C176.859 171.704 174.21 170.416 171.56 169.127C170.884 168.798 170.288 169.806 170.968 170.136Z" fill="black"/>
</g>
<mask id="mask3_12_1835" style="mask-type:luminance" maskUnits="userSpaceOnUse" x="-167" y="-484" width="1053" height="1052">
<path d="M885.379 -483.64H-166.621V567.088H885.379V-483.64Z" fill="white"/>
</mask>
<g mask="url(#mask3_12_1835)">
<path d="M169.135 179.094C171.103 179.774 173.074 180.451 175.044 181.13C175.759 181.376 176.068 180.244 175.355 179.999L169.447 177.964C168.732 177.719 168.424 178.85 169.135 179.094Z" fill="black"/>
</g>
<g opacity="0.2">
<path d="M267.384 507.675C267.384 512.489 240.357 516.39 207.017 516.39C173.676 516.39 146.647 512.489 146.647 507.675C146.647 502.86 173.676 498.959 207.017 498.959C240.357 498.959 267.384 502.86 267.384 507.675Z" fill="#413846"/>
</g>
<path d="M235.319 271.067H252.044V280.072L261.409 271.067H360.412C364.517 271.067 367.844 267.746 367.844 263.646V142.26C367.844 138.16 364.517 134.837 360.412 134.837H235.319C231.213 134.837 227.887 138.16 227.887 142.26L229.855 263.09C229.855 267.188 231.213 271.067 235.319 271.067Z" fill="#B9E6E6"/>
<path d="M360.41 134.068H305.141C282.437 134.068 258.966 132.221 236.354 134.068C230.044 134.583 228.251 136.75 227.901 142.775C227.42 151.107 227.825 159.579 227.838 167.919C227.879 195.061 227.981 222.21 228.413 249.35C228.483 253.736 226.527 265.739 229.159 269.616C231.402 272.918 238.419 271.29 241.789 271.286C243.451 271.284 250.131 270.24 251.148 271.227C252.136 272.187 251.148 278.543 251.148 280.072C251.148 280.572 251.756 280.796 252.11 280.468C256.624 276.277 259.202 272.068 265.068 271.631C273.392 271.011 282.005 271.631 290.349 271.631H346.64C355.645 271.631 367.217 274.455 368.407 262.811C370.108 246.151 368.407 228.453 368.407 211.717V159.79C368.407 159.066 367.279 159.066 367.279 159.79V202.537C367.279 221.379 368.699 240.827 367.279 259.619C367.184 260.869 367.571 262.371 367.279 263.59C365.432 271.325 359.654 270.504 353.821 270.504H340.615H279.509C274.693 270.504 265.983 268.746 261.409 270.504C259.007 271.43 256.589 274.775 254.725 276.503C254.487 276.727 252.899 278.522 252.321 278.738C250.753 279.321 252.983 280.546 252.274 278.214C251.639 276.131 252.274 272.93 252.274 270.71C252.274 270.406 252.017 270.145 251.711 270.145C246.418 270.164 240.784 270.74 235.534 270.168C230.363 269.605 230.724 269.421 229.905 265.152C228.456 257.594 229.52 248.659 229.424 240.996C229.118 216.638 229.001 192.278 228.966 167.919C228.953 159.936 228.84 151.942 229.013 143.963C229.192 135.632 236.2 135.194 243.159 135.194H305.342H360.41C361.135 135.194 361.137 134.068 360.41 134.068Z" fill="black"/>
<path d="M243.872 246.73H349.245V245.463H243.872V246.73ZM0.644592 -144.584H1052.64V906.143H0.644592V-144.584ZM0.644592 906.143H1052.64V-144.584H0.644592V906.143Z" fill="white"/>
<path d="M243.872 250.842H349.245V249.576H243.872V250.842ZM0.644592 -144.584H1052.64V906.143H0.644592V-144.584ZM0.644592 906.143H1052.64V-144.584H0.644592V906.143Z" fill="white"/>
<path d="M243.872 254.682H349.245V253.416H243.872V254.682ZM0.644592 -144.584H1052.64V906.143H0.644592V-144.584ZM0.644592 906.143H1052.64V-144.584H0.644592V906.143Z" fill="white"/>
<path d="M243.872 258.805H349.245V257.539H243.872V258.805ZM0.644592 -144.584H1052.64V906.143H0.644592V-144.584ZM0.644592 906.143H1052.64V-144.584H0.644592V906.143Z" fill="white"/>
<path d="M345.633 237.694H248.23C244.45 237.694 241.386 234.634 241.386 230.858V171.639C241.386 167.865 244.45 164.804 248.23 164.804H345.633C349.411 164.804 352.477 167.865 352.477 171.639V230.858C352.477 234.634 349.411 237.694 345.633 237.694Z" fill="white"/>
<path d="M288.326 202.287V194.068L297.216 198.179L306.107 202.287L297.216 206.396L288.326 210.506V202.287Z" fill="#B9DFE0"/>
<mask id="mask4_12_1835" style="mask-type:luminance" maskUnits="userSpaceOnUse" x="197" y="147" width="31" height="25">
<path d="M227.303 147.431H197.767V171.671H227.303V147.431Z" fill="white"/>
</mask>
<g mask="url(#mask4_12_1835)">
<path d="M204.572 168.425C207.167 159.689 213.506 152.734 222 149.383C222.668 149.12 222.378 148.03 221.7 148.297C212.822 151.8 206.204 158.975 203.485 168.125C203.28 168.821 204.365 169.119 204.572 168.425Z" fill="black"/>
</g>
<mask id="mask5_12_1835" style="mask-type:luminance" maskUnits="userSpaceOnUse" x="771" y="134" width="69" height="30">
<path d="M771.411 138.836C771.411 138.836 777.189 147.813 778.089 148.711C807.755 137.937 831.125 163.077 831.125 163.077C831.125 163.077 835.234 159.485 839.6 155.381C822.522 121.263 771.411 138.836 771.411 138.836Z" fill="white"/>
</mask>
<g mask="url(#mask5_12_1835)">
<path d="M779.686 140.925C799.16 135.996 819.068 141.898 832.721 156.615C833.214 157.146 834.007 156.35 833.516 155.818C819.608 140.825 799.224 134.818 779.386 139.84C778.683 140.018 778.979 141.104 779.686 140.925Z" fill="black"/>
</g>
<path d="M474.545 117.521H488.86C488.86 117.521 489.228 117.256 489.228 118.888V126.189L490.161 126.469L489.219 128.616V135.31L488.871 136.173H474.229C474.229 136.173 473.735 136.176 473.735 135.31V118.408L474.545 117.521Z" fill="white"/>
<path d="M481.162 123.442H488.3" stroke="#FFC78F" stroke-width="0.108474" stroke-miterlimit="10"/>
<path d="M481.162 124.448H488.3" stroke="#FFC78F" stroke-width="0.108474" stroke-miterlimit="10"/>
<path d="M481.162 125.755H488.3" stroke="#FFC78F" stroke-width="0.108474" stroke-miterlimit="10"/>
<path d="M481.162 126.761H488.3" stroke="#FFC78F" stroke-width="0.108474" stroke-miterlimit="10"/>
<path d="M481.162 127.767H488.3" stroke="#FFC78F" stroke-width="0.108474" stroke-miterlimit="10"/>
<path d="M481.162 128.773H488.3" stroke="#FFC78F" stroke-width="0.108474" stroke-miterlimit="10"/>
<path d="M481.162 129.778H488.3" stroke="#FFC78F" stroke-width="0.108474" stroke-miterlimit="10"/>
<path d="M481.162 131.086H488.3" stroke="#FFC78F" stroke-width="0.108474" stroke-miterlimit="10"/>
<path d="M475.344 132.494H488.3" stroke="#FFC78F" stroke-width="0.108474" stroke-miterlimit="10"/>
<path d="M475.344 133.801H488.3" stroke="#FFC78F" stroke-width="0.108474" stroke-miterlimit="10"/>
<path d="M479.634 131.388H475.619C475.208 131.388 474.874 130.887 474.874 130.271V123.855C474.874 123.239 475.208 122.738 475.619 122.738H479.634C480.046 122.738 480.379 123.239 480.379 123.855V130.271C480.379 130.887 480.046 131.388 479.634 131.388Z" fill="#FFECCF"/>
<path d="M474.545 117.623H481.988H485.71H487.714C487.968 117.623 488.707 117.486 488.878 117.619C489.45 118.065 489.16 121.66 489.16 122.319V126.189C489.16 126.231 489.181 126.279 489.21 126.288C489.279 126.308 490.073 126.507 490.069 126.491C490.106 126.664 489.528 127.724 489.478 127.838C489.206 128.462 489.2 128.499 489.151 129.153C489.001 131.153 489.151 133.294 489.151 135.31C489.151 135.442 489.288 135.442 489.288 135.31V130.29C489.288 128.562 489.57 128.001 490.219 126.52C490.243 126.468 490.221 126.383 490.179 126.37C489.594 126.195 489.431 126.369 489.296 125.688C489.124 124.816 489.296 123.453 489.296 122.538C489.296 121.6 489.635 118.598 489.192 117.756C489.049 117.486 489.037 117.543 488.869 117.41C488.408 117.045 487.106 117.418 486.569 117.418H484.279H474.545C474.457 117.418 474.456 117.623 474.545 117.623Z" fill="#FFC78F"/>
<path d="M488.871 136.071H480.331H475.887C475.512 136.071 474.559 136.322 474.23 136.071C473.663 135.638 473.835 135.076 473.803 134.416C473.547 129.139 473.803 123.703 473.803 118.408C473.803 118.277 473.667 118.276 473.667 118.408V126.31V131.85C473.667 132.908 473.542 134.158 473.667 135.203C473.793 136.259 474.043 136.264 474.723 136.275C476.193 136.3 477.663 136.275 479.133 136.275H488.871C488.959 136.275 488.959 136.071 488.871 136.071Z" fill="#FFC78F"/>
<path d="M456.949 204.43H481.863C484.11 204.43 485.931 202.61 485.931 200.367V199.571C485.931 197.328 484.11 195.508 481.863 195.508H456.949C454.704 195.508 452.883 197.328 452.883 199.571V200.367C452.883 202.61 454.704 204.43 456.949 204.43Z" fill="#BAB9BD"/>
<path d="M465.67 231.421H491.799L488.947 229.1C487.192 227.672 486.175 225.531 486.175 223.27V199.341C486.175 197.213 484.447 195.487 482.319 195.487H456.557L457.36 196.474C459.004 198.496 459.902 201.02 459.902 203.624V225.661C459.902 228.844 462.485 231.421 465.67 231.421Z" fill="#DFDFE0"/>
<path d="M481.969 205.106H464.811" stroke="white" stroke-width="1.159" stroke-miterlimit="10"/>
<path d="M481.969 200.445H464.811" stroke="white" stroke-width="1.159" stroke-miterlimit="10"/>
<path d="M481.969 210.491H464.811" stroke="white" stroke-width="1.159" stroke-miterlimit="10"/>
<path d="M481.969 215.314H464.811" stroke="white" stroke-width="1.159" stroke-miterlimit="10"/>
<path d="M481.969 220.939H464.811" stroke="white" stroke-width="1.159" stroke-miterlimit="10"/>
<path d="M483.231 226.562H466.07" stroke="white" stroke-width="1.159" stroke-miterlimit="10"/>
<path d="M635.851 589.935C635.851 593.627 598.396 596.621 552.197 596.621C505.997 596.621 468.546 593.627 468.546 589.935C468.546 586.243 505.997 583.251 552.197 583.251C598.396 583.251 635.851 586.243 635.851 589.935Z" fill="#413846"/>
<path d="M614.522 537.228C614.522 540.465 617.61 547.818 616.533 551.04C615.461 554.258 615.658 558.842 613.868 560.989C612.076 563.135 611.378 568.303 615.3 569.573C615.3 569.573 626.4 567.07 631.415 548.111C636.429 529.153 630.782 546.87 634.364 537.928C637.945 528.985 635.44 526.481 635.44 526.481C635.44 526.481 628.477 518.422 624.437 518.389C620.396 518.358 614.522 537.228 614.522 537.228Z" fill="black"/>
<path d="M546.534 571.693C547.089 574.79 548.753 575.949 549.351 581.045C549.67 583.758 547.802 586.247 545.11 586.73C535.917 588.386 527.81 591.431 512.621 590.889C508.605 590.746 497.415 588.312 497.415 588.312C497.415 588.312 496.983 583.44 499.71 582.58C502.436 581.72 509.895 581.433 510.326 581.291C510.756 581.146 519.653 576.705 521.516 575.272C523.382 573.84 521.235 572.442 524.678 572.299C528.122 572.157 546.534 571.693 546.534 571.693Z" fill="black"/>
<path d="M548.019 505.45C548.019 505.45 568.72 516.889 570.921 518.869C573.126 520.848 608.809 539.036 608.809 539.036C608.809 539.036 612.773 540.358 614.976 539.478L624.435 518.391C624.435 518.391 616.289 511.133 614.745 510.472C613.204 509.811 569.16 475.935 554.845 474.396L548.977 473.189C548.977 473.189 545.375 473.996 545.153 476.416C544.933 478.833 548.019 505.45 548.019 505.45Z" fill="#515146"/>
<path d="M551.108 492.78C574.601 504.239 596.588 519.222 618.748 533.019C619.364 533.405 619.929 532.432 619.315 532.051C597.155 518.254 575.168 503.269 551.675 491.811C551.028 491.495 550.456 492.464 551.108 492.78Z" fill="black"/>
<path d="M560.241 475.691L548.977 473.189C548.977 473.189 545.375 473.996 545.153 476.416C544.933 478.833 548.017 505.45 548.017 505.45C548.017 505.45 568.72 516.887 570.921 518.867L561.636 500.794L560.241 475.691Z" fill="black"/>
<path d="M519.073 392.996C517.238 397.886 514.508 478.195 516.036 482.166C516.036 482.166 521.598 570.402 520.957 571.898C520.314 573.392 549.193 572.752 548.336 570.829C547.481 568.906 551.465 544.025 551.975 539.35C552.799 531.807 561.611 432.457 562.682 429.467C563.75 426.475 573.366 415.291 577.217 396.49L551.118 393.929L519.073 392.996Z" fill="#515146"/>
<path d="M577.217 396.492L551.118 393.929L519.073 392.998C518.578 394.315 518.576 397.41 518.046 401.473C517.89 402.665 532.591 401.11 548.052 402.185C548.377 402.208 556.08 403.041 556.386 403.074L572.441 403.337C572.441 403.337 575.741 405.288 577.217 396.492Z" fill="black"/>
<path d="M534.343 398.779C535.083 406.831 540.053 414.921 543.569 422.083C543.89 422.734 544.861 422.165 544.543 421.515C541.151 414.609 536.176 406.456 535.469 398.779C535.404 398.062 534.278 398.054 534.343 398.779Z" fill="black"/>
<path d="M536.815 397.447C536.647 404.683 541.551 412.112 544.426 418.527C544.722 419.186 545.692 418.613 545.4 417.956C542.605 411.726 537.777 404.418 537.939 397.447C537.956 396.722 536.832 396.722 536.815 397.447Z" fill="black"/>
<path d="M541.198 268.934C539.016 268.692 535.624 268.449 533.446 270.627C531.264 272.806 514.06 300.156 511.635 317.097C510.776 323.102 513.801 343.154 513.801 343.154C513.801 343.154 504.937 382.277 505.093 384.623C505.336 388.251 504.366 395.512 511.878 397.691C519.39 399.868 530.536 397.691 530.536 397.691L548.225 293.377L541.198 268.934Z" fill="#451730"/>
<path d="M534.577 263.31L531.529 255.081L528.013 253.952C528.013 253.952 526.965 252.775 521.729 249.913C521.239 249.644 519.987 247.341 518.535 244.225L515.625 243.182C514.717 242.857 514.128 241.985 514.172 241.023C514.289 238.506 514.459 233.801 514.175 232.644C513.78 231.044 509.011 219.085 511.47 213.964C513.929 208.845 524.142 196.533 538.915 201.84C553.685 207.147 553.959 224.151 551.162 232.203L555.003 244.808L534.577 263.31Z" fill="#FFC48E"/>
<path d="M517.647 229.068C517.841 229.785 517.855 230.513 518.05 231.231C518.238 231.928 519.337 231.675 519.147 230.972C518.952 230.254 518.938 229.528 518.745 228.809C518.557 228.112 517.458 228.366 517.647 229.068Z" fill="black"/>
<path d="M554.798 244.334L535.075 263.58L531.724 255.469L554.798 244.334Z" fill="black"/>
<path d="M505.154 206.989C499.641 211.422 505.545 219.306 510.096 219.192C514.645 219.075 524.747 213.498 527.976 212.831L529.528 215.358C530.13 216.338 531.169 216.971 532.316 217.056L534.875 217.246C534.875 217.246 536.889 225.075 537.549 226.388C537.958 227.201 541.968 224.928 543.97 226.865C547.785 230.555 550.492 238.963 550.492 238.963L552.873 233.015C552.873 233.015 556.586 223.1 556.017 218.521C555.454 213.941 553.102 202.875 547.433 199.731C541.764 196.588 520.134 194.942 505.154 206.989Z" fill="black"/>
<path d="M516.199 333.868C516.199 333.868 516.081 333.151 515.907 331.975C515.239 327.463 517.246 317.351 517.824 313.514C518.551 308.673 533.643 269.49 533.643 269.49C533.643 269.49 530.976 262.229 530.976 260.536C530.976 258.841 556.664 238.272 556.664 238.272L560.539 244.322L558.846 251.098L516.199 333.868Z" fill="#FFEBDF"/>
<path d="M562.807 244.256C562.807 244.256 551.435 250.115 542.684 259.701C540.14 262.488 542.78 263.953 538.948 269.623C529.597 283.461 517.282 315.114 517.282 315.114C517.282 315.114 512.765 330.338 511.919 351.483C511.072 372.629 508.648 395.146 508.648 395.146C508.648 395.146 518.412 398.286 526.597 398.286C534.783 398.286 575.08 398.005 577.408 398.005C581.599 398.005 584.231 394.939 584.466 392.649C584.899 388.403 580.677 366.042 578.137 352.791C575.598 339.54 582.769 280.999 585.027 274.797C587.285 268.593 579.101 260.136 568.936 255.061C568.936 255.061 565.593 253.31 565.082 252.032L562.807 244.256Z" fill="#FF7C51"/>
<path d="M555.601 313.746L557.989 323.169L546.363 322.133C546.363 322.133 551.422 321.858 552.616 320.545C553.809 319.233 555.601 313.746 555.601 313.746Z" fill="black"/>
<path d="M542.901 227.088C544.186 223.661 544.423 221.848 547.412 221.628C550.403 221.409 552.339 227.272 551.22 230.541C550.104 233.81 548.181 236.552 545.226 235.779L542.901 227.088Z" fill="#FFC48E"/>
<path d="M547.72 399.427C545.868 415.116 541.644 430.329 539.168 445.903C537.089 458.99 536.717 472.266 536.365 485.492C535.537 516.316 536.316 547.149 538.486 577.907C538.535 578.625 539.665 578.63 539.616 577.907C537.446 547.147 536.676 516.318 537.489 485.492C537.89 470.431 538.476 455.452 541.223 440.6C543.762 426.855 547.202 413.329 548.843 399.427C548.928 398.709 547.802 398.715 547.72 399.427Z" fill="black"/>
<path d="M522.379 570.24C530.232 569.912 538.093 569.801 545.949 569.473C546.67 569.442 546.674 568.317 545.949 568.348C538.093 568.674 530.232 568.787 522.379 569.114C521.656 569.146 521.652 570.271 522.379 570.24Z" fill="black"/>
<path d="M613.447 539.749C615.586 534.548 617.725 529.348 619.864 524.146C620.139 523.477 619.05 523.187 618.777 523.848C616.638 529.048 614.499 534.249 612.36 539.449C612.085 540.12 613.174 540.409 613.447 539.749Z" fill="black"/>
<path d="M538.02 226.574L538.495 232.303C538.604 233.616 538.411 234.933 537.931 236.16L535.167 243.233C534.415 245.165 532.992 246.761 531.159 247.732L530.314 247.615L526.528 244.168L519.112 245.568L520.308 247.736L526.815 247.384L529.165 250.201L527.919 253.894L531.513 255.081L539.546 247.858C541.242 246.334 542.267 244.201 542.397 241.928L543.353 225.376L538.02 226.574Z" fill="black"/>
<path d="M552.753 297.839C553.614 306.368 555.005 314.786 556.943 323.139C557.107 323.845 558.192 323.545 558.03 322.839C556.115 314.589 554.73 306.267 553.877 297.839C553.805 297.125 552.681 297.117 552.753 297.839Z" fill="black"/>
<path d="M551.024 273.66C555.133 270.635 559.263 267.626 563.569 264.887C566.563 262.984 571.256 259.29 575.012 259.957C575.723 260.083 576.027 258.999 575.312 258.872C572.359 258.348 569.277 260.241 566.804 261.622C561.063 264.823 555.739 268.8 550.456 272.687C549.877 273.112 550.44 274.089 551.024 273.66Z" fill="black"/>
<path d="M547.547 284.896C549.209 289.213 550.978 293.488 552.638 297.804C552.897 298.473 553.988 298.184 553.727 297.506C552.065 293.189 550.292 288.914 548.63 284.596C548.373 283.927 547.286 284.218 547.547 284.896Z" fill="black"/>
<path d="M542.394 266.204C547.886 260.011 556.096 254.749 563.781 251.775C564.449 251.517 564.157 250.429 563.481 250.69C555.589 253.745 547.245 259.038 541.597 265.408C541.118 265.95 541.913 266.748 542.394 266.204Z" fill="black"/>
<path d="M514.512 360.659C513.78 361.74 514.004 363.251 514.964 364.133C516.04 365.122 517.651 364.806 518.529 363.721C520.528 361.244 517.055 358.473 514.797 360.329C514.238 360.79 515.038 361.582 515.595 361.127C516.827 360.111 518.769 361.65 517.633 363.029C516.371 364.556 514.516 362.658 515.486 361.227C515.892 360.626 514.916 360.062 514.512 360.659Z" fill="black"/>
<path d="M539.336 360.811H558.24C558.967 360.811 558.967 359.686 558.24 359.686H539.336C538.609 359.686 538.609 360.811 539.336 360.811Z" fill="black"/>
<path d="M538.455 362.783C539.238 368.385 539.242 374.165 539.464 379.812C539.472 380.001 539.562 380.214 539.741 380.301C545.653 383.131 553.047 383.609 558.488 379.582C559.063 379.158 558.5 378.179 557.917 378.61C553.929 381.563 549.162 381.92 544.444 380.748C543.312 380.469 541.987 380.159 540.947 379.611C540.14 379.184 540.569 380.151 540.553 378.813C540.479 373.42 540.288 367.829 539.538 362.483C539.439 361.769 538.354 362.073 538.455 362.783Z" fill="black"/>
<path d="M560.2 378.858C560.128 373.046 560.142 367.236 560.14 361.426C560.14 360.702 559.014 360.7 559.014 361.426C559.014 367.236 559 373.046 559.072 378.858C559.082 379.582 560.208 379.584 560.2 378.858Z" fill="black"/>
<path d="M541.107 365.923H556.863C557.588 365.923 557.588 364.798 556.863 364.798H541.107C540.382 364.798 540.38 365.923 541.107 365.923Z" fill="black"/>
<path d="M519.934 497.196C521.204 496.055 522.47 494.918 523.741 493.777C524.28 493.293 523.482 492.499 522.944 492.981C521.674 494.122 520.407 495.263 519.137 496.402C518.596 496.888 519.396 497.678 519.934 497.196Z" fill="black"/>
<path d="M520.314 492.254C521.074 491.618 521.835 490.986 522.595 490.35C523.152 489.886 522.35 489.09 521.798 489.554C521.037 490.188 520.277 490.826 519.517 491.46C518.96 491.926 519.761 492.716 520.314 492.254Z" fill="black"/>
<path d="M514.413 227.389C516.817 226.264 519.387 225.429 522.042 225.187C522.759 225.123 522.763 223.997 522.042 224.062C519.178 224.323 516.439 225.203 513.844 226.416C513.188 226.724 513.76 227.695 514.413 227.389Z" fill="black"/>
<path d="M518.494 315.274C524.395 298.389 531.163 282.189 541.44 267.456C541.857 266.861 540.881 266.297 540.471 266.888C530.119 281.725 523.343 297.983 517.405 314.975C517.166 315.66 518.255 315.956 518.494 315.274Z" fill="black"/>
<path d="M541.214 264.93C541.609 263.976 541.693 263.034 542.061 262.071C542.628 260.581 543.684 259.623 544.792 258.517C546.458 256.85 548.243 255.276 550.052 253.768C553.982 250.486 558.202 247.648 562.63 245.089C563.259 244.726 562.692 243.753 562.061 244.116C557.148 246.957 552.492 250.158 548.196 253.87C546.15 255.639 543.838 257.443 542.157 259.563C540.838 261.226 540.912 262.734 540.129 264.63C539.852 265.299 540.941 265.591 541.214 264.93Z" fill="black"/>
<path d="M533.277 261.665C533.193 261.234 533.228 260.811 533.38 260.388C533.104 260.501 532.827 260.614 532.552 260.725C535.157 262.198 538.206 263.452 540.471 265.437C541.013 265.913 541.812 265.121 541.268 264.64C538.921 262.584 535.819 261.281 533.121 259.754C532.807 259.576 532.389 259.736 532.293 260.089C532.143 260.641 532.098 261.088 532.151 261.665C532.217 262.379 533.345 262.387 533.277 261.665Z" fill="black"/>
<path d="M532.716 261.665C532.626 261.191 532.671 260.69 532.839 260.239C534.249 261.041 539.682 263.93 540.869 265.039C540.869 265.039 541.934 266.635 540.158 268.587L532.716 261.665Z" fill="black"/>
<path d="M476.987 310.118L468.091 301.945L468.707 300.14L477.534 299.186L488.366 308.371L476.987 310.118Z" fill="black"/>
<path d="M504.945 329.191C504.945 329.191 496.211 329.352 492.176 327.021C488.141 324.692 483.727 319.93 483.727 319.93C483.727 319.93 482.227 319.135 481.636 318.794C478.344 316.918 479.842 314.957 479.842 314.957C479.842 314.957 475.197 313.867 475.702 311.587C475.93 310.552 476.988 310.119 476.988 310.119C476.988 310.119 475.253 308.352 475.184 307.686C475.114 307.02 475.155 305.98 476.857 306.043C478.561 306.107 480.798 307.042 480.798 307.042L486.809 308.495C486.809 308.495 485.9 307.517 487.814 307.019C489.728 306.521 497.599 306.34 498.843 306.007C500.087 305.675 508.909 313.006 508.909 313.006L504.945 329.191Z" fill="#FFC48E"/>
<path d="M476.988 310.118C476.988 310.118 475.929 310.551 475.702 311.586C475.197 313.866 479.84 314.958 479.84 314.958C479.84 314.958 478.342 316.919 481.633 318.796C482.225 319.134 483.729 319.929 483.729 319.929C483.729 319.929 488.138 324.691 492.173 327.022L488.378 321.174C488.378 321.174 484.421 318.971 485.767 316.883L481.218 313.549L491.023 313.993L476.988 310.118Z" fill="black"/>
<path d="M477.484 310.846C482.853 312.833 488.512 314.027 494.067 315.357C494.77 315.525 495.114 314.453 494.407 314.285C488.85 312.953 483.193 311.759 477.825 309.772C477.143 309.52 476.807 310.595 477.484 310.846Z" fill="black"/>
<path d="M480.144 315.491C484.66 317.179 489.541 318.745 494.349 319.248C495.07 319.324 495.11 318.196 494.391 318.12C489.695 317.629 484.897 316.066 480.485 314.417C479.803 314.164 479.469 315.238 480.144 315.491Z" fill="black"/>
<path d="M484.326 320.372C487.417 321.541 490.822 322.111 494.089 322.543C494.807 322.639 494.845 321.513 494.131 321.418C490.966 320.999 487.662 320.43 484.666 319.298C483.987 319.041 483.65 320.117 484.326 320.372Z" fill="black"/>
<path d="M485.529 308.436C490.14 309.464 494.782 310.197 499.486 310.643C500.209 310.711 500.247 309.585 499.528 309.517C494.926 309.083 490.38 308.366 485.869 307.362C485.166 307.207 484.822 308.279 485.529 308.436Z" fill="black"/>
<path d="M511.401 333.611L504.131 332.532C504.131 332.532 506.723 312.508 508.365 312.027C510.007 311.548 516.953 315.43 516.953 315.43L511.401 333.611Z" fill="#FFEBDF"/>
<path d="M516.953 315.431L511.399 333.615L504.131 332.534L508.516 327.868L516.953 315.431Z" fill="black"/>
<path d="M580.787 348.288C579.071 350.077 571.426 350.414 569.797 349.943C568.164 349.469 547.833 347.27 539.626 346.142C531.422 345.014 517.421 338.933 513.945 338.188C510.467 337.439 509.521 335.138 509.521 335.138L509.4 343.78C509.4 343.78 517.246 346.854 528.714 348.872C540.181 350.887 567.108 354.67 567.108 354.67L575.134 352.98L580.787 348.288Z" fill="black"/>
<path d="M575.76 262.014C569.572 261.458 557.99 268.563 554.886 285.336C551.787 302.112 556.319 324.319 556.319 324.319C556.319 324.319 551.703 326.413 546.22 324.15C540.739 321.888 527.717 317.283 524.47 315.926C521.22 314.569 518.159 312.147 516.093 313.022C514.027 313.894 508.974 336.853 508.974 336.853C508.974 336.853 510.467 337.446 513.944 338.193C517.422 338.94 531.419 345.021 539.626 346.149C547.832 347.277 568.163 349.474 569.794 349.947C571.425 350.418 579.068 350.083 580.783 348.295C582.499 346.504 590.017 310.794 590.249 304.57C591.51 270.811 583.569 262.716 575.76 262.014Z" fill="#FF7C51"/>
<path d="M517.747 314.483C525.505 316.641 533.355 318.523 541.216 320.266C546.614 321.461 553.265 323.67 558.873 323.094C559.591 323.02 559.328 321.925 558.616 321.998C551.994 322.678 544.179 319.811 537.786 318.336C531.193 316.817 524.608 315.225 518.088 313.411C517.39 313.216 517.047 314.288 517.747 314.483Z" fill="black"/>
<path d="M519.564 339.089C519.953 332.242 520.942 325.508 522.546 318.838C522.714 318.135 521.639 317.794 521.469 318.498C519.841 325.27 518.835 332.092 518.439 339.047C518.398 339.771 519.523 339.812 519.564 339.089Z" fill="black"/>
<path d="M512.89 336.403C513.411 337.749 515.329 338.315 516.432 337.295C517.535 336.274 517.137 334.33 515.834 333.693C515.542 333.55 515.077 333.611 514.994 334.002C514.9 334.445 514.807 334.887 514.714 335.329C514.565 336.034 515.637 336.378 515.787 335.669C515.882 335.227 515.972 334.784 516.067 334.342C515.788 334.443 515.507 334.541 515.227 334.644C515.837 334.941 516.294 335.915 515.665 336.469C515.044 337.017 514.139 336.536 513.884 335.873C513.621 335.2 512.631 335.734 512.89 336.403Z" fill="black"/>
<path d="M504.577 328.728C505.119 324.892 505.886 321.106 506.954 317.377C507.276 316.253 507.628 313.547 508.69 313.016C510.072 312.326 513.363 314.539 514.528 315.181C515.16 315.529 515.765 314.58 515.131 314.23C512.931 313.017 510.715 312.083 508.303 311.369C508.004 311.28 507.702 311.447 507.598 311.739C505.641 317.259 504.271 322.891 503.452 328.687C503.349 329.404 504.477 329.439 504.577 328.728Z" fill="black"/>
<path d="M541.132 107.799C541.132 116.621 533.972 123.775 525.136 123.775C516.301 123.775 509.141 116.621 509.141 107.799C509.141 98.9743 516.301 91.8223 525.136 91.8223C533.972 91.8223 541.132 98.9743 541.132 107.799Z" fill="#FF606D"/>
<path d="M530.585 116.188L527.713 111.922L516.324 109.065L519.053 98.9825L533.735 103.274L530.585 116.188Z" stroke="white" stroke-width="1.828" stroke-linecap="round" stroke-linejoin="round"/>
<mask id="mask6_12_1835" style="mask-type:luminance" maskUnits="userSpaceOnUse" x="-507" y="-383" width="1053" height="1052">
<path d="M545.474 -382.395H-506.526V668.333H545.474V-382.395Z" fill="white"/>
</mask>
<g mask="url(#mask6_12_1835)">
<path d="M508.578 77.4487C509.714 80.5824 510.852 83.7141 511.988 86.8478C512.233 87.523 513.32 87.2316 513.073 86.5482C511.937 83.4165 510.801 80.2828 509.665 77.1491C509.418 76.4739 508.329 76.7653 508.578 77.4487Z" fill="black"/>
</g>
<mask id="mask7_12_1835" style="mask-type:luminance" maskUnits="userSpaceOnUse" x="-494" y="-399" width="1053" height="1052">
<path d="M558.675 -398.098H-493.325V652.63H558.675V-398.098Z" fill="white"/>
</mask>
<g mask="url(#mask7_12_1835)">
<path d="M495.787 93.4437C498.054 94.4615 500.32 95.4794 502.584 96.4953C503.24 96.7908 503.813 95.8222 503.151 95.5246C500.887 94.5067 498.621 93.4888 496.356 92.4709C495.701 92.1774 495.126 93.1461 495.787 93.4437Z" fill="black"/>
</g>
<mask id="mask8_12_1835" style="mask-type:luminance" maskUnits="userSpaceOnUse" x="-494" y="-420" width="1053" height="1051">
<path d="M558.846 -419.991H-493.154V630.737H558.846V-419.991Z" fill="white"/>
</mask>
<g mask="url(#mask8_12_1835)">
<path d="M496.188 118.634C498.691 117.534 501.195 116.434 503.7 115.334C504.362 115.043 503.788 114.072 503.131 114.362C500.626 115.464 498.119 116.562 495.617 117.664C494.955 117.953 495.53 118.924 496.188 118.634Z" fill="black"/>
</g>
<mask id="mask9_12_1835" style="mask-type:luminance" maskUnits="userSpaceOnUse" x="498" y="44" width="80" height="49">
<path d="M565.94 58.6732C536.293 26.2607 498.649 58.6732 498.649 58.6732C498.649 58.6732 503.016 63.0341 506.611 66.6255C549.76 39.6903 565.17 85.6084 565.17 85.6084L573.902 92.0215C573.902 92.0215 584.946 79.4517 565.94 58.6732Z" fill="white"/>
</mask>
<g mask="url(#mask9_12_1835)">
<path d="M509.683 57.2735C532.535 41.7035 568.737 55.7816 570.588 84.7895C570.623 85.3354 571.478 85.3395 571.443 84.7895C569.555 55.2111 532.683 40.5707 509.252 56.5347C508.798 56.8446 509.227 57.5834 509.683 57.2735Z" fill="black"/>
</g>
<path d="M762.525 202.395H717.215L709.986 210.698L702.754 202.395H659.028C654.931 202.395 651.609 199.076 651.609 194.984V30.845C651.609 26.7529 654.931 23.4344 659.028 23.4344H762.525C766.622 23.4344 769.942 26.7529 769.942 30.845V194.984C769.942 199.076 766.622 202.395 762.525 202.395Z" fill="#FFE0AE"/>
<path d="M663.966 123.781H763.147V122.291H663.966V123.781ZM0.644592 -164.931H1052.64V885.797H0.644592V-164.931ZM0.644592 885.797H1052.64V-164.931H0.644592V885.797Z" fill="white"/>
<path d="M663.966 129.86H763.147V128.37H663.966V129.86ZM0.644592 -164.931H1052.64V885.797H0.644592V-164.931ZM0.644592 885.797H1052.64V-164.931H0.644592V885.797Z" fill="white"/>
<path d="M663.966 135.938H763.147V134.448H663.966V135.938ZM0.644592 -164.931H1052.64V885.797H0.644592V-164.931ZM0.644592 885.797H1052.64V-164.931H0.644592V885.797Z" fill="white"/>
<path d="M663.966 142.017H763.147V140.527H663.966V142.017ZM0.644592 -164.931H1052.64V885.797H0.644592V-164.931ZM0.644592 885.797H1052.64V-164.931H0.644592V885.797Z" fill="white"/>
<path d="M663.966 148.096H763.147V146.606H663.966V148.096ZM0.644592 -164.931H1052.64V885.797H0.644592V-164.931ZM0.644592 885.797H1052.64V-164.931H0.644592V885.797Z" fill="white"/>
<path d="M663.966 154.174H763.147V152.684H663.966V154.174ZM0.644592 -164.931H1052.64V885.797H0.644592V-164.931ZM0.644592 885.797H1052.64V-164.931H0.644592V885.797Z" fill="white"/>
<path d="M663.966 160.253H763.147V158.763H663.966V160.253ZM0.644592 -164.931H1052.64V885.797H0.644592V-164.931ZM0.644592 885.797H1052.64V-164.931H0.644592V885.797Z" fill="white"/>
<path d="M663.968 166.329H763.147V164.837H663.968V166.329Z" fill="white"/>
<path d="M663.966 172.41H763.147V170.92H663.966V172.41ZM0.644592 -164.931H1052.64V885.797H0.644592V-164.931ZM0.644592 885.797H1052.64V-164.931H0.644592V885.797Z" fill="white"/>
<path d="M663.966 178.489H763.147V176.999H663.966V178.489ZM0.644592 -164.931H1052.64V885.797H0.644592V-164.931ZM0.644592 885.797H1052.64V-164.931H0.644592V885.797Z" fill="white"/>
<path d="M663.966 184.567H763.147V183.077H663.966V184.567ZM0.644592 -164.931H1052.64V885.797H0.644592V-164.931ZM0.644592 885.797H1052.64V-164.931H0.644592V885.797Z" fill="white"/>
<path d="M663.966 190.644H763.147V189.156H663.966V190.644ZM0.644592 -164.931H1052.64V885.797H0.644592V-164.931ZM0.644592 885.797H1052.64V-164.931H0.644592V885.797Z" fill="white"/>
<path d="M760.267 113.208H660.715C659.19 113.208 657.954 111.973 657.954 110.45V45.8445C657.954 44.3218 659.19 43.0864 660.715 43.0864H760.267C761.791 43.0864 763.028 44.3218 763.028 45.8445V110.45C763.028 111.973 761.791 113.208 760.267 113.208Z" fill="white"/>
<path d="M705.62 67.1833L706.097 85.3905L725.284 76.2869L705.62 67.1833Z" fill="#FFE0AE"/>
<path d="M652.439 78.5546V47.0758C652.439 40.8802 648.954 25.1829 659.028 23.9968C659.739 23.9147 659.749 22.788 659.028 22.8722C654.017 23.4611 651.911 25.7104 651.309 30.7034C649.443 46.1421 651.313 62.9907 651.313 78.5546C651.313 79.279 652.439 79.2811 652.439 78.5546Z" fill="black"/>
<path d="M769.379 79.2954V172.014C769.379 178.489 769.909 185.22 769.379 191.672C769.085 195.216 770.511 198.118 766.305 201.145C762.336 204 752.412 202.032 747.581 202.032H727.667C724.382 202.032 719.609 201.016 716.824 202.475C714.909 203.478 711.899 209.933 709.841 210.025C709.561 210.037 705.135 203.698 704.223 202.547C703.771 201.978 702.98 202.779 703.426 203.341C705.478 205.927 707.531 208.51 709.584 211.096C709.769 211.328 710.192 211.301 710.381 211.096C712.442 208.867 714.971 204.671 717.622 203.271C721.68 201.124 733.383 203.156 738.019 203.156H756.133C759.233 203.156 763.947 204.059 766.873 202.114C773.889 197.451 770.503 179.03 770.503 172.014V79.2954C770.503 78.571 769.379 78.569 769.379 79.2954Z" fill="black"/>
<path d="M694.026 24.2328H753.46C756.065 24.2328 761.943 23.1184 764.284 24.479C770.096 27.859 769.519 35.1094 769.519 40.6812V59.5471C769.519 60.2715 770.645 60.2736 770.645 59.5471V35.3968C770.645 29.4577 770.335 24.477 763.503 23.1677C753.655 21.2817 741.456 23.1061 731.47 23.1061H694.026C693.3 23.1061 693.298 24.2328 694.026 24.2328Z" fill="black"/>
<path d="M947.636 274.797H896.854C896.854 274.797 895.547 274.169 895.547 278.031V295.296L892.239 295.959L895.578 301.036V316.867L896.815 318.909H948.754C948.754 318.909 950.506 318.915 950.506 316.867V276.896L947.636 274.797Z" fill="white"/>
<path d="M924.161 288.801H898.837" stroke="#FFC78F" stroke-width="0.622" stroke-miterlimit="10"/>
<path d="M924.161 291.18H898.837" stroke="#FFC78F" stroke-width="0.622" stroke-miterlimit="10"/>
<path d="M924.161 294.272H898.837" stroke="#FFC78F" stroke-width="0.622" stroke-miterlimit="10"/>
<path d="M924.161 296.651H898.837" stroke="#FFC78F" stroke-width="0.622" stroke-miterlimit="10"/>
<path d="M924.161 299.029H898.837" stroke="#FFC78F" stroke-width="0.622" stroke-miterlimit="10"/>
<path d="M924.161 301.408H898.837" stroke="#FFC78F" stroke-width="0.622" stroke-miterlimit="10"/>
<path d="M924.161 303.786H898.837" stroke="#FFC78F" stroke-width="0.622" stroke-miterlimit="10"/>
<path d="M924.161 306.879H898.837" stroke="#FFC78F" stroke-width="0.622" stroke-miterlimit="10"/>
<path d="M944.8 310.208H898.837" stroke="#FFC78F" stroke-width="0.622" stroke-miterlimit="10"/>
<path d="M944.8 313.3H898.837" stroke="#FFC78F" stroke-width="0.622" stroke-miterlimit="10"/>
<path d="M929.583 307.591H943.824C945.283 307.591 946.467 306.409 946.467 304.95V289.776C946.467 288.317 945.283 287.135 943.824 287.135H929.583C928.122 287.135 926.939 288.317 926.939 289.776V304.95C926.939 306.409 928.122 307.591 929.583 307.591Z" fill="#FFECCF"/>
<path d="M947.636 274.315H912.48C909.049 274.315 897.902 272.115 895.508 275.183C891.378 280.477 900.061 293.905 892.112 295.495C891.816 295.555 891.662 295.951 891.824 296.199C896.192 302.838 895.099 308.989 895.099 316.867C895.099 317.485 896.055 317.485 896.055 316.867C896.055 312.227 897.168 306.232 896.055 301.777C895.204 298.37 890.84 296.725 895.675 295.758C895.88 295.717 896.028 295.495 896.028 295.296C896.028 290.917 893.867 280.27 896.441 276.65C898.845 273.268 915.231 275.275 920.292 275.275H947.636C948.254 275.275 948.254 274.315 947.636 274.315Z" fill="#FFC78F"/>
<path d="M896.815 319.387H933.615C938.412 319.387 948.667 322.178 950.968 316.994C952.97 312.494 950.985 303.164 950.985 298.202V276.896C950.985 276.281 950.025 276.279 950.025 276.896V291.984C950.025 298.611 951.836 308.166 950.025 314.538C948.137 321.191 933.093 318.429 926.908 318.429H896.815C896.197 318.429 896.195 319.387 896.815 319.387Z" fill="#FFC78F"/>
<path d="M502.551 77.9085H487.314C485.169 77.9085 483.426 76.1702 483.426 74.0257V66.8922C483.426 64.7477 485.169 63.0095 487.314 63.0095H502.551C504.698 63.0095 506.439 64.7477 506.439 66.8922V74.0257C506.439 76.1702 504.698 77.9085 502.551 77.9085Z" fill="#FCB522"/>
<path d="M495.058 72.0987L485.845 67.904C485.845 67.904 486.136 69.7428 487.883 71.0993C489.627 72.4558 495.45 75.1729 495.45 75.1729C495.45 75.1729 506.005 69.086 504.09 66.7342L495.058 72.0987Z" fill="#664D00"/>
<path d="M504.035 66.923L495.058 72.1028L485.826 67.6823" stroke="#FFDFAC" stroke-width="1.254" stroke-linecap="round" stroke-linejoin="round"/>
<path d="M691.112 406.536H730.416C733.958 406.536 736.835 403.671 736.835 400.131V398.873C736.835 395.333 733.958 392.466 730.416 392.466H691.112C687.568 392.466 684.695 395.333 684.695 398.873V400.131C684.695 403.671 687.568 406.536 691.112 406.536Z" fill="#92B9BD"/>
<path d="M704.866 449.115H746.085L741.583 445.452C738.818 443.198 737.211 439.823 737.211 436.256V398.508C737.211 395.15 734.489 392.429 731.127 392.429H690.494L691.759 393.985C694.354 397.172 695.768 401.155 695.768 405.264V440.028C695.768 445.048 699.842 449.115 704.866 449.115Z" fill="#B9DFE0"/>
<path d="M730.579 407.603H703.512" stroke="white" stroke-width="1.828" stroke-miterlimit="10"/>
<path d="M730.579 400.252H703.512" stroke="white" stroke-width="1.828" stroke-miterlimit="10"/>
<path d="M730.579 416.095H703.512" stroke="white" stroke-width="1.828" stroke-miterlimit="10"/>
<path d="M730.579 423.703H703.512" stroke="white" stroke-width="1.828" stroke-miterlimit="10"/>
<path d="M690.531 393.112H725.44C731.084 393.112 735.064 393.673 736.648 400.252C737.162 402.392 736.648 405.469 736.648 407.675V436.258C736.648 436.984 737.776 436.984 737.776 436.258C737.776 424.183 739.216 411.244 737.776 399.271C737.275 395.101 735.787 392.844 731.446 392.043C726.648 391.155 721.135 391.988 716.251 391.988H690.531C689.803 391.988 689.803 393.112 690.531 393.112Z" fill="black"/>
<path d="M694.328 400.359C696.234 410.004 695.049 421.104 695.104 430.891C695.141 437.28 693.767 444.317 700.253 448.294C705.466 451.489 714.854 449.675 720.533 449.675H746.083C746.809 449.675 746.811 448.551 746.083 448.551H726.475C719.105 448.551 709.048 450.422 702.193 447.354C693.272 443.367 696.253 430.83 696.161 422.73C696.074 415.418 696.839 407.275 695.411 400.059C695.271 399.351 694.188 399.651 694.328 400.359Z" fill="black"/>
<path d="M730.579 432.576H703.512" stroke="white" stroke-width="1.828" stroke-miterlimit="10"/>
<path d="M732.567 441.45H705.501" stroke="white" stroke-width="1.828" stroke-miterlimit="10"/>
<path d="M760.626 309.752H780.544C783.176 309.752 785.307 307.626 785.307 304.999V292.413C785.307 289.788 783.176 287.658 780.544 287.658H760.626C757.996 287.658 755.864 289.788 755.864 292.413V304.999C755.864 307.626 757.996 309.752 760.626 309.752Z" fill="#FFE0AE"/>
<path d="M755.864 291.021C755.864 289.162 757.37 287.656 759.231 287.656H781.935C783.797 287.656 785.303 289.162 785.303 291.021H755.864Z" fill="#FFC78F"/>
<path d="M782.313 294.014H758.403" stroke="white" stroke-width="0.799" stroke-miterlimit="10"/>
<path d="M782.313 297.847H758.403" stroke="white" stroke-width="0.799" stroke-miterlimit="10"/>
<path d="M782.313 301.839H758.403" stroke="white" stroke-width="0.799" stroke-miterlimit="10"/>
<path d="M782.313 305.352H758.403" stroke="white" stroke-width="0.799" stroke-miterlimit="10"/>
<path d="M751.82 283.244H774.522C776.382 283.244 777.892 284.752 777.892 286.611V301.974C777.892 303.833 776.382 305.342 774.522 305.342H751.82C749.96 305.342 748.448 303.833 748.448 301.974V286.611C748.448 284.752 749.96 283.244 751.82 283.244Z" fill="#FFC78F"/>
<path d="M748.286 301.533H768.206C770.836 301.533 772.967 299.405 772.967 296.78V284.194C772.967 281.569 770.836 279.439 768.206 279.439H748.286C745.658 279.439 743.527 281.569 743.527 284.194V296.78C743.527 299.405 745.658 301.533 748.286 301.533Z" fill="#FFE0AE"/>
<path d="M743.527 282.803C743.527 280.945 745.033 279.437 746.897 279.437H769.597C771.461 279.437 772.967 280.945 772.967 282.803H743.527Z" fill="#FFC78F"/>
<path d="M769.975 285.797H746.065" stroke="white" stroke-width="0.799" stroke-miterlimit="10"/>
<path d="M769.975 289.628H746.065" stroke="white" stroke-width="0.799" stroke-miterlimit="10"/>
<path d="M769.975 293.62H746.065" stroke="white" stroke-width="0.799" stroke-miterlimit="10"/>
<path d="M769.975 297.133H746.065" stroke="white" stroke-width="0.799" stroke-miterlimit="10"/>
<mask id="mask10_12_1835" style="mask-type:luminance" maskUnits="userSpaceOnUse" x="635" y="300" width="137" height="61">
<path d="M646.076 300.577L635.288 302.372C635.288 302.372 634.261 358.808 705.148 360.604C776.035 362.399 771.925 309.555 771.925 309.555C771.925 309.555 765.504 308.529 758.313 309.555C756.515 316.738 750.094 340.082 705.405 341.877C664.315 343.529 646.076 300.577 646.076 300.577Z" fill="white"/>
</mask>
<g mask="url(#mask10_12_1835)">
<path d="M762.328 316.629C746.404 367.23 647.717 360.398 642.469 306.023C642.4 305.307 641.272 305.301 641.339 306.023C646.717 361.738 747.096 368.779 763.412 316.929C763.632 316.237 762.543 315.939 762.328 316.629Z" fill="black"/>
</g>
<path d="M810.228 255.857H784.48C780.852 255.857 777.911 252.923 777.911 249.3V237.238C777.911 233.615 780.852 230.681 784.48 230.681H810.228C813.856 230.681 816.794 233.615 816.794 237.238V249.3C816.794 252.923 813.856 255.857 810.228 255.857Z" fill="#E36142"/>
<path d="M797.567 246.044L781.998 238.951C781.998 238.951 782.489 242.062 785.442 244.355C788.39 246.647 798.228 251.231 798.228 251.231C798.228 251.231 816.063 240.952 812.827 236.977L797.567 246.044Z" fill="black"/>
<path d="M812.734 237.295L797.567 246.046L781.972 238.578" stroke="#DFAA9A" stroke-width="1.828" stroke-linecap="round" stroke-linejoin="round"/>
<path d="M568.784 508.413H408.126C404.206 508.413 401.029 505.242 401.029 501.328V428.416C401.029 424.5 404.206 421.327 408.126 421.327H431.829L449.859 409.751L449.277 421.327H568.784C572.7 421.327 575.879 424.5 575.879 428.416V501.328C575.879 505.242 572.7 508.413 568.784 508.413Z" fill="#FF7C51"/>
<path d="M481.018 449.91H562.585V448.644H481.018V449.91ZM0.644592 -149.253H1052.64V901.475H0.644592V-149.253ZM0.644592 901.475H1052.64V-149.253H0.644592V901.475Z" fill="white"/>
<path d="M481.018 455.893H562.585V454.626H481.018V455.893ZM0.644592 -149.253H1052.64V901.475H0.644592V-149.253ZM0.644592 901.475H1052.64V-149.253H0.644592V901.475Z" fill="white"/>
<path d="M562.585 461.682H481.018V460.418H562.585V461.682Z" fill="white"/>
<path d="M481.018 467.666H562.585V466.4H481.018V467.666ZM0.644592 -149.253H1052.64V901.475H0.644592V-149.253ZM0.644592 901.475H1052.64V-149.253H0.644592V901.475Z" fill="white"/>
<path d="M562.585 473.648H481.018V472.384H562.585V473.648Z" fill="white"/>
<path d="M481.018 485.229H562.585V483.965H481.018V485.229ZM0.644592 -149.253H1052.64V901.475H0.644592V-149.253ZM0.644592 901.475H1052.64V-149.253H0.644592V901.475Z" fill="white"/>
<path d="M562.585 491.406H481.018V490.142H562.585V491.406Z" fill="white"/>
<path d="M562.585 479.44H481.018V478.175H562.585V479.44Z" fill="white"/>
<path d="M433.686 421.153C436.972 419.053 440.385 417.024 443.498 414.668C445.632 413.457 447.475 411.904 449.025 410.011V411.869C449.937 414.024 449.025 418.871 449.025 421.329C449.025 421.631 449.284 421.89 449.588 421.89H512.233H553.113C559.571 421.89 574.007 419.004 575.337 428.563C575.435 429.28 576.524 428.976 576.423 428.266C575.23 419.684 567.237 420.767 560.693 420.767H514.261H464.558C461.135 420.767 454.396 422.072 451.176 420.767C448.622 419.731 451.373 422.136 450.153 419.85C448.99 417.672 450.153 412.06 450.153 409.609C450.153 409.217 449.66 408.866 449.304 409.127C444.015 412.981 438.632 416.657 433.117 420.18C432.509 420.57 433.072 421.543 433.686 421.153Z" fill="black"/>
<path d="M407.976 420.784C404.204 421.385 401.966 423.025 400.77 426.729C398.405 434.047 400.458 444.954 400.458 452.56V489.03C400.458 493.821 398.862 500.604 401.664 505.053C404.574 509.671 409.573 508.909 414.329 508.909H440.701H548.856C554.693 508.909 560.586 508.661 566.417 508.909C568.47 508.997 571.153 509.718 573.07 508.844C577.206 506.958 576.403 500.936 576.442 497.4C576.522 490.259 576.442 483.111 576.442 475.969C576.442 475.243 575.316 475.243 575.316 475.969C575.316 484.742 578.799 505.289 568.932 507.805C563.364 509.227 555.57 507.787 549.836 507.787H522.751H415.874C413.914 507.787 411.407 508.189 409.476 507.787C399.32 505.669 401.586 497.257 401.586 489.03V456.611C401.586 448.812 396.959 423.675 408.276 421.869C408.989 421.758 408.687 420.669 407.976 420.784Z" fill="black"/>
<path d="M468.863 494.312H420.812C417.689 494.312 415.155 491.784 415.155 488.662V450.214C415.155 447.093 417.689 444.562 420.812 444.562H468.863C471.988 444.562 474.519 447.093 474.519 450.214V488.662C474.519 491.784 471.988 494.312 468.863 494.312Z" fill="white"/>
<path d="M438.272 460.99V475.618L452.918 468.302L438.272 460.99Z" fill="white"/>
<mask id="mask11_12_1835" style="mask-type:luminance" maskUnits="userSpaceOnUse" x="462" y="355" width="52" height="54">
<path d="M504.3 355.73C504.3 355.73 463.977 379.073 462.949 408.574C472.709 408.574 476.305 408.574 476.305 408.574C476.305 408.574 482.726 371.891 513.289 366.504C510.721 361.886 504.3 355.73 504.3 355.73Z" fill="white"/>
</mask>
<g mask="url(#mask11_12_1835)">
<path d="M470.28 404.798C472.333 386.478 484.891 371.195 502.449 365.564C503.137 365.342 502.843 364.257 502.149 364.478C484.059 370.282 471.265 385.952 469.155 404.798C469.074 405.518 470.2 405.512 470.28 404.798Z" fill="black"/>
</g>
</g>
</g>
<defs>
<clipPath id="clip0_12_1835">
<rect width="1052" height="597" fill="white"/>
</clipPath>
</defs>
</svg>
